<svg width="27" height="27" viewBox="0 0 27 27" fill="none" xmlns="http://www.w3.org/2000/svg">
<path d="M26.3672 6.66572L20.3353 0.6328C20.1347 0.43218 19.8966 0.273038 19.6345 0.164461C19.3724 0.0558843 19.0915 0 18.8078 0C18.5241 0 18.2431 0.0558843 17.981 0.164461C17.7189 0.273038 17.4808 0.43218 17.2802 0.6328L0.633168 17.2804C0.431718 17.4802 0.272003 17.7181 0.163308 17.9802C0.054612 18.2423 -0.000895653 18.5234 1.09283e-05 18.8072V24.8401C1.09283e-05 25.4129 0.227584 25.9623 0.632668 26.3674C1.03775 26.7724 1.58716 27 2.16004 27H8.19326C8.47702 27.0009 8.75813 26.9454 9.02025 26.8367C9.28237 26.728 9.52027 26.5683 9.72012 26.3669L26.3672 9.72065C26.5678 9.52008 26.7269 9.28195 26.8355 9.01986C26.9441 8.75778 27 8.47687 27 8.19318C27 7.9095 26.9441 7.62859 26.8355 7.36651C26.7269 7.10442 26.5678 6.86629 26.3672 6.66572ZM8.19326 24.8401H2.16004V18.8072L14.0402 6.92761L20.0734 12.9605L8.19326 24.8401ZM21.6003 11.4324L15.567 5.40082L18.8071 2.16094L24.8403 8.19251L21.6003 11.4324Z" fill="#FBBC05"/>
</svg>
