<svg width="25" height="25" viewBox="0 0 25 25" fill="none" xmlns="http://www.w3.org/2000/svg">
<rect width="25" height="25" rx="9" fill="#283891"/>
<g clip-path="url(#clip0_50_280)">
<path d="M11.2456 16.5967H9.30548C9.21339 16.5967 9.12507 16.5601 9.05995 16.495C8.99484 16.4299 8.95825 16.3416 8.95825 16.2495V14.3094C8.9581 14.2643 8.96683 14.2196 8.98396 14.1779C9.00109 14.1362 9.02628 14.0983 9.05808 14.0663L14.2664 8.85797C14.2987 8.82516 14.3372 8.7991 14.3797 8.78132C14.4222 8.76354 14.4678 8.75438 14.5138 8.75438C14.5599 8.75438 14.6054 8.76354 14.6479 8.78132C14.6904 8.7991 14.7289 8.82516 14.7612 8.85797L16.697 10.7937C16.7298 10.826 16.7558 10.8646 16.7736 10.907C16.7914 10.9495 16.8006 10.9951 16.8006 11.0411C16.8006 11.0872 16.7914 11.1328 16.7736 11.1752C16.7558 11.2177 16.7298 11.2562 16.697 11.2885L11.4886 16.4969C11.4567 16.5287 11.4188 16.5538 11.3771 16.571C11.3353 16.5881 11.2907 16.5968 11.2456 16.5967V16.5967Z" stroke="white" stroke-width="0.8" stroke-linecap="round" stroke-linejoin="round"/>
<path d="M13.125 9.99945L15.5556 12.43" stroke="white" stroke-width="0.8" stroke-linecap="round" stroke-linejoin="round"/>
</g>
<defs>
<clipPath id="clip0_50_280">
<rect width="11.1111" height="11.1111" fill="white" transform="translate(7.22217 7.22168)"/>
</clipPath>
</defs>
</svg>
