<svg width="20" height="20" viewBox="0 0 20 20" fill="none" xmlns="http://www.w3.org/2000/svg">
<path d="M10 0C15.5228 0 20 4.47715 20 10C20 15.5228 15.5228 20 10 20C4.47715 20 0 15.5228 0 10C0 4.47715 4.47715 0 10 0ZM10 1.66667C5.39763 1.66667 1.66667 5.39763 1.66667 10C1.66667 14.6024 5.39763 18.3333 10 18.3333C14.6024 18.3333 18.3333 14.6024 18.3333 10C18.3333 5.39763 14.6024 1.66667 10 1.66667ZM10 14.1667C10.6904 14.1667 11.25 14.7263 11.25 15.4167C11.25 16.107 10.6904 16.6667 10 16.6667C9.30964 16.6667 8.75 16.107 8.75 15.4167C8.75 14.7263 9.30964 14.1667 10 14.1667ZM10 4.16667C11.8409 4.16667 13.3333 5.65905 13.3333 7.5C13.3333 8.71755 12.9804 9.39948 12.0767 10.3465L11.6366 10.7958C11.0075 11.4517 10.8333 11.8052 10.8333 12.5C10.8333 12.9602 10.4602 13.3333 10 13.3333C9.53976 13.3333 9.16667 12.9602 9.16667 12.5C9.16667 11.2824 9.51963 10.6005 10.4233 9.65349L10.8634 9.20424C11.4925 8.5483 11.6667 8.19483 11.6667 7.5C11.6667 6.57952 10.9205 5.83333 10 5.83333C9.07952 5.83333 8.33333 6.57952 8.33333 7.5C8.33333 7.96024 7.96024 8.33333 7.5 8.33333C7.03976 8.33333 6.66667 7.96024 6.66667 7.5C6.66667 5.65905 8.15905 4.16667 10 4.16667Z" fill="#FBBC05"/>
</svg>
