<svg width="23" height="20" viewBox="0 0 23 20" fill="none" xmlns="http://www.w3.org/2000/svg">
<path fill-rule="evenodd" clip-rule="evenodd" d="M6.04904 9.11039C9.31034 6.43425 14.0219 6.42271 17.2832 9.09884C19.33 10.7785 20.5167 13.2868 20.517 15.9346L20.517 16.0516C20.517 17.7104 19.0961 19.0623 17.3186 19.1229L17.194 19.125H14.9768C14.3929 19.125 13.9145 18.7071 13.8722 18.177L13.8692 18.1005V15.7297C13.8692 14.6362 12.9381 13.7436 11.768 13.6905L11.6576 13.688C10.4696 13.688 9.50253 14.5475 9.44501 15.6278L9.4423 15.7297V18.1005C9.4423 18.6406 8.99045 19.0831 8.41731 19.1222L8.33465 19.125H6.11745C4.32394 19.125 2.86229 17.8108 2.79678 16.1668L2.79434 16.0516V15.9808C2.79434 13.3222 3.99382 10.7969 6.04904 9.11039ZM10.9247 1.00482C11.3182 0.685046 11.8957 0.666236 12.3109 0.948388L12.3868 1.00482L22.3557 9.20052C22.8139 9.5742 22.8585 10.2205 22.4554 10.645C21.7896 11.3434 20.7375 10.5678 19.9916 9.95574L12.4077 3.7324L12.3317 3.6753C11.9413 3.40765 11.405 3.40766 11.0145 3.67532L10.9385 3.73242L2.33299 10.7946C1.87672 11.0736 1.25988 11.0033 0.891546 10.6162C0.520435 10.2261 0.526315 9.64553 0.891578 9.26247L0.95578 9.20052L10.9247 1.00482Z" fill="#395C86"/>
</svg>
