<svg width="310" height="173" viewBox="0 0 310 173" fill="none" xmlns="http://www.w3.org/2000/svg">
<path d="M302.102 66.9317L298.816 75.3396L301.146 76.2504L304.432 67.8424L302.102 66.9317Z" fill="#367CFF"/>
<path d="M96.81 46.3143L94.9465 47.9833L100.969 54.7079L102.833 53.039L96.81 46.3143Z" fill="#0CBC8B"/>
<path d="M124.422 76.4126L117.197 81.8247L118.697 83.8271L125.922 78.4151L124.422 76.4126Z" fill="#367CFF"/>
<path d="M207.989 14.3076L206.275 16.1295L212.849 22.3162L214.564 20.4943L207.989 14.3076Z" fill="#367CFF"/>
<path d="M160.184 16.3194L155.685 24.146L157.853 25.3928L162.353 17.5662L160.184 16.3194Z" fill="#0CBC8B"/>
<path d="M225.52 83.2494L223.405 84.5844L228.222 92.2188L230.338 90.8838L225.52 83.2494Z" fill="#0CBC8B"/>
<path d="M127.422 120.425L125.184 121.543L129.218 129.619L131.456 128.501L127.422 120.425Z" fill="#0CBC8B"/>
<path d="M94.6804 99.1766L92.0881 107.824L94.484 108.542L97.0763 99.8948L94.6804 99.1766Z" fill="#367CFF"/>
<path d="M251.281 126.122L243.784 131.15L245.177 133.228L252.674 128.2L251.281 126.122Z" fill="#367CFF"/>
<path d="M252.404 -3.84237e-05L247.905 7.82632L250.074 9.07309L254.573 1.24672L252.404 -3.84237e-05Z" fill="#0CBC8B"/>
<path d="M2.32996 64.0283L0 64.939L3.28641 73.347L5.61636 72.4363L2.32996 64.0283Z" fill="#0CBC8B"/>
<path d="M244.195 53.6412L242.695 55.6436L249.92 61.0557L251.42 59.0532L244.195 53.6412Z" fill="#0CBC8B"/>
<path d="M41.2392 16.7558L34.6646 22.9425L36.379 24.7643L42.9535 18.5776L41.2392 16.7558Z" fill="#367CFF"/>
<path d="M114.06 9.38846L111.891 10.6353L116.39 18.4618L118.559 17.215L114.06 9.38846Z" fill="#367CFF"/>
<path d="M25.6002 107.655L20.7825 115.289L22.8981 116.624L27.7158 108.99L25.6002 107.655Z" fill="#0CBC8B"/>
<path d="M4.26117 128.568L2.86777 130.647L10.3695 135.675L11.7629 133.597L4.26117 128.568Z" fill="#367CFF"/>
<path d="M293.684 28.8723L291.516 30.1191L296.015 37.9455L298.184 36.6987L293.684 28.8723Z" fill="#367CFF"/>
<path d="M199.694 50.201L193.672 56.9257L195.535 58.5947L201.558 51.87L199.694 50.201Z" fill="#367CFF"/>
<path d="M146.822 125.999L142.787 134.075L145.025 135.193L149.06 127.117L146.822 125.999Z" fill="#0CBC8B"/>
<path d="M179.564 104.751L177.168 105.469L179.761 114.117L182.157 113.398L179.564 104.751Z" fill="#367CFF"/>
<path d="M180.371 109.686L171.845 103.205C171.657 103.062 171.442 102.96 171.213 102.906C170.984 102.851 170.747 102.845 170.515 102.887C170.284 102.929 170.063 103.019 169.869 103.151C169.674 103.283 169.508 103.454 169.383 103.653C169.164 104.028 169.091 104.471 169.18 104.897C169.269 105.322 169.512 105.7 169.863 105.956L171.692 107.346L163.937 105.615C163.078 105.407 161.891 105.702 161.722 106.681C161.632 107.053 161.671 107.445 161.833 107.792C161.994 108.139 162.269 108.422 162.611 108.593C162.607 108.601 162.604 108.609 162.602 108.617C162.602 108.623 162.602 108.63 162.602 108.636L161.277 108.316C161.032 108.257 160.777 108.253 160.53 108.306C160.283 108.358 160.05 108.464 159.85 108.618C159.649 108.771 159.485 108.967 159.37 109.191C159.255 109.416 159.192 109.663 159.184 109.916C159.18 110.313 159.313 110.7 159.561 111.011C159.808 111.322 160.155 111.539 160.543 111.626L161.105 111.762C161.109 111.78 161.116 111.797 161.125 111.813C160.723 111.809 160.333 111.949 160.024 112.207C159.716 112.465 159.509 112.824 159.441 113.22C159.379 113.656 159.483 114.099 159.734 114.461C159.984 114.823 160.362 115.077 160.791 115.173L162.192 115.512C162.169 115.521 162.148 115.535 162.132 115.554C162.116 115.573 162.104 115.595 162.098 115.619C162.092 115.648 162.095 115.678 162.106 115.706C161.747 115.802 161.43 116.014 161.203 116.308C160.976 116.602 160.851 116.963 160.849 117.335C160.855 117.725 160.992 118.102 161.239 118.405C161.486 118.707 161.828 118.918 162.209 119.002L174.021 121.856C175.673 122.255 177.407 122.151 179.001 121.559C180.594 120.966 181.974 119.911 182.964 118.529C183.818 117.337 184.173 115.86 183.954 114.41C183.736 112.961 182.961 111.654 181.793 110.767L180.371 109.686Z" fill="#E98862"/>
<g opacity="0.2">
<path d="M170.279 110.345C170.269 110.385 170.244 110.419 170.21 110.44C170.175 110.462 170.133 110.469 170.093 110.46L162.72 108.802C162.7 108.798 162.681 108.789 162.664 108.778C162.647 108.766 162.633 108.751 162.622 108.733C162.611 108.716 162.603 108.697 162.6 108.676C162.596 108.656 162.597 108.635 162.601 108.615C162.606 108.595 162.614 108.576 162.626 108.56C162.638 108.543 162.653 108.528 162.67 108.517C162.688 108.506 162.707 108.499 162.727 108.496C162.748 108.492 162.768 108.493 162.788 108.497L170.162 110.154C170.182 110.159 170.201 110.167 170.218 110.179C170.234 110.191 170.249 110.206 170.26 110.224C170.271 110.241 170.278 110.261 170.282 110.281C170.285 110.301 170.284 110.322 170.28 110.342L170.279 110.345Z" fill="#0C0C0C"/>
</g>
<g opacity="0.2">
<path d="M169.639 113.617C169.629 113.657 169.603 113.691 169.568 113.713C169.533 113.734 169.491 113.741 169.451 113.732L161.222 111.884C161.202 111.879 161.183 111.871 161.166 111.859C161.149 111.847 161.135 111.832 161.124 111.814C161.113 111.797 161.106 111.778 161.102 111.757C161.099 111.737 161.099 111.716 161.104 111.696C161.114 111.656 161.14 111.622 161.174 111.6C161.209 111.578 161.251 111.57 161.292 111.578L169.52 113.426C169.54 113.43 169.559 113.439 169.576 113.451C169.593 113.463 169.607 113.478 169.618 113.495C169.629 113.513 169.637 113.532 169.64 113.552C169.644 113.573 169.643 113.593 169.639 113.614V113.617Z" fill="#0C0C0C"/>
</g>
<g opacity="0.2">
<path d="M168.965 117.165C168.955 117.204 168.93 117.239 168.896 117.26C168.861 117.282 168.819 117.289 168.779 117.28L162.215 115.806C162.175 115.796 162.14 115.772 162.117 115.737C162.095 115.702 162.088 115.659 162.097 115.619C162.106 115.578 162.131 115.543 162.166 115.521C162.201 115.499 162.243 115.491 162.284 115.5L168.848 116.974C168.868 116.979 168.887 116.987 168.904 116.999C168.921 117.011 168.935 117.026 168.946 117.044C168.957 117.061 168.964 117.08 168.968 117.101C168.971 117.121 168.971 117.142 168.966 117.162L168.965 117.165Z" fill="#0C0C0C"/>
</g>
<path d="M139.891 65.1058L144.651 55.5118C144.756 55.301 144.903 55.1143 145.084 54.9636C145.265 54.8128 145.475 54.7014 145.701 54.6363C145.927 54.5712 146.164 54.554 146.398 54.5856C146.631 54.6173 146.855 54.6971 147.055 54.8201C147.419 55.0585 147.681 55.4235 147.791 55.8441C147.901 56.2648 147.85 56.7113 147.65 57.0969L146.629 59.1542L152.807 54.1594C153.485 53.5918 154.679 53.3289 155.265 54.1306C155.511 54.4244 155.65 54.7928 155.659 55.1758C155.669 55.5587 155.548 55.9336 155.317 56.2392C155.324 56.2442 155.331 56.25 155.336 56.2564C155.34 56.2619 155.343 56.2676 155.345 56.2736L156.39 55.398C156.584 55.236 156.811 55.1193 157.055 55.0563C157.3 54.9933 157.555 54.9856 157.803 55.0338C158.051 55.082 158.284 55.1849 158.487 55.3349C158.69 55.485 158.857 55.6784 158.976 55.9011C159.156 56.2557 159.208 56.6612 159.125 57.0498C159.042 57.4385 158.828 57.7869 158.518 58.0366L158.074 58.409C158.079 58.4268 158.08 58.4454 158.078 58.4637C158.437 58.2819 158.849 58.2335 159.24 58.3273C159.631 58.421 159.976 58.6509 160.213 58.9756C160.462 59.3387 160.565 59.7823 160.501 60.2179C160.437 60.6536 160.212 61.0491 159.869 61.3256L158.765 62.2503C158.79 62.2481 158.815 62.2519 158.838 62.2614C158.861 62.2708 158.881 62.2857 158.897 62.3047C158.915 62.3283 158.926 62.3567 158.929 62.3863C159.293 62.3129 159.672 62.3613 160.006 62.5241C160.34 62.6869 160.611 62.955 160.778 63.2872C160.947 63.6395 160.991 64.0384 160.904 64.4192C160.818 64.7999 160.605 65.1402 160.301 65.3851L150.985 73.1883C149.682 74.2799 148.083 74.9576 146.392 75.1342C144.701 75.3109 142.996 74.9786 141.496 74.1798C140.202 73.4912 139.227 72.3254 138.779 70.9299C138.331 69.5344 138.445 68.0192 139.096 66.7063L139.891 65.1058Z" fill="#E98862"/>
<g opacity="0.2">
<path d="M149.225 61.2133C149.252 61.2448 149.289 61.2646 149.33 61.2684C149.371 61.2722 149.412 61.2597 149.444 61.2336L155.315 56.4749C155.347 56.4488 155.368 56.4109 155.372 56.3697C155.376 56.3284 155.364 56.2871 155.338 56.2549C155.312 56.2227 155.274 56.2022 155.233 56.1979C155.191 56.1936 155.15 56.2058 155.118 56.2319L149.247 60.9906C149.215 61.0167 149.195 61.0543 149.19 61.0953C149.186 61.1363 149.198 61.1774 149.224 61.2095L149.225 61.2133Z" fill="#0C0C0C"/>
</g>
<g opacity="0.2">
<path d="M151.252 63.8606C151.279 63.8921 151.317 63.9118 151.358 63.9156C151.399 63.9193 151.44 63.9068 151.471 63.8806L158.023 58.57C158.055 58.5439 158.075 58.5063 158.08 58.4653C158.084 58.4243 158.072 58.3833 158.046 58.3511C158.019 58.3203 157.982 58.3008 157.941 58.2966C157.9 58.2923 157.86 58.3035 157.827 58.328L151.273 63.6377C151.241 63.6637 151.221 63.7014 151.217 63.7424C151.212 63.7833 151.224 63.8244 151.25 63.8566L151.252 63.8606Z" fill="#0C0C0C"/>
</g>
<g opacity="0.2">
<path d="M153.432 66.74C153.458 66.7715 153.496 66.7913 153.537 66.7951C153.578 66.7989 153.619 66.7864 153.651 66.7603L158.877 62.5241C158.909 62.498 158.93 62.4602 158.934 62.4189C158.938 62.3776 158.926 62.3364 158.9 62.3041C158.874 62.2719 158.836 62.2514 158.795 62.2471C158.753 62.2428 158.712 62.255 158.68 62.2812L153.452 66.5173C153.42 66.5434 153.4 66.581 153.396 66.622C153.391 66.663 153.403 66.7041 153.429 66.7362L153.432 66.74Z" fill="#0C0C0C"/>
</g>
<path d="M33.0528 56.8798C33.0528 56.8798 32.3815 66.9535 30.1153 70.6075C23.5905 81.1293 21.7002 92.9657 28.2341 99.15C34.768 105.334 76.4434 105.42 79.6008 91.1964C82.2587 79.2215 76.5547 77.9338 75.1666 68.0564C74.5387 63.5867 72.8111 54.2141 72.8111 54.2141" fill="#0A0A0A"/>
<path d="M68.8147 89.111C68.7428 89.1017 67.9445 102.348 52.5561 101.193C41.903 100.395 38.1046 89.0916 37.8607 89.0916C39.0092 88.8474 40.9433 88.4925 41.4533 88.2201C43.1309 87.3189 45.2057 86.3808 45.7473 83.1231C46.06 81.2469 45.53 71.64 45.6929 69.7394L62.0454 73.3906C61.8168 77.4028 60.2176 86.7039 65.8228 88.3499C66.7553 88.6229 67.76 88.8734 68.8147 89.111Z" fill="#E98862"/>
<path opacity="0.5" d="M62.2745 84.5493C62.0184 83.7239 61.8535 82.8728 61.7827 82.0114C61.603 80.0458 61.6388 78.0664 61.8896 76.1086C58.5662 75.6599 55.4352 74.288 52.8525 72.1488C52.5489 73.2702 50.8787 78.1702 51.3412 79.2359C52.2146 81.2506 56.3213 84.5493 62.2745 84.5493Z" fill="#0C0C0C"/>
<path d="M60.1601 80.4226C53.7128 81.048 45.3712 78.4676 43.6432 69.8817L42.084 62.1349C40.356 53.5493 43.4646 45.6817 51.5483 44.0547C59.6323 42.4287 67.0752 48.1715 68.8032 56.7573L69.4936 60.187C70.1566 63.4814 71.6629 79.3094 60.1601 80.4226Z" fill="#E98862"/>
<path opacity="0.1" d="M56.0618 69.1717C57.1228 69.0451 57.9076 68.3117 57.8148 67.5335C57.7219 66.7553 56.7866 66.227 55.7256 66.3536C54.6646 66.4802 53.8798 67.2137 53.9727 67.9919C54.0655 68.7701 55.0009 69.2983 56.0618 69.1717Z" fill="#0C0C0C"/>
<path opacity="0.1" d="M67.2728 66.0605C67.3666 66.8376 68.3032 67.3651 69.3642 67.24C69.5475 67.218 69.7281 67.1771 69.903 67.1178C69.9524 66.1912 69.9552 65.3 69.9283 64.4748C69.6336 64.4011 69.3277 64.3831 69.0265 64.422C67.9655 64.547 67.1809 65.2803 67.2728 66.0605Z" fill="#0C0C0C"/>
<path opacity="0.5" d="M62.5847 68.4624C62.59 68.4618 62.5952 68.461 62.6003 68.4599C62.928 68.3916 63.2516 68.3053 63.5697 68.2013C64.0444 68.0424 64.6642 67.7816 64.5791 67.3523C64.4809 66.8632 62.0775 61.8547 61.8048 61.2859C61.7937 61.2602 61.7774 61.237 61.7571 61.2178C61.7368 61.1985 61.7128 61.1835 61.6865 61.1738C61.6603 61.164 61.6324 61.1596 61.6044 61.1609C61.5764 61.1622 61.549 61.1691 61.5237 61.1812C61.4985 61.1933 61.476 61.2104 61.4575 61.2314C61.439 61.2524 61.4249 61.277 61.4161 61.3036C61.4073 61.3301 61.404 61.3582 61.4063 61.3861C61.4086 61.414 61.4165 61.4412 61.4296 61.466C62.4543 63.5989 64.1048 67.1059 64.1711 67.4351C64.1191 67.5887 63.3318 67.8886 62.519 68.0524C62.4921 68.0568 62.4663 68.0664 62.443 68.0807C62.4198 68.0951 62.3996 68.1138 62.3836 68.136C62.3676 68.1581 62.3561 68.1832 62.3498 68.2098C62.3436 68.2363 62.3426 68.2639 62.3469 68.2908C62.3513 68.3178 62.3609 68.3436 62.3752 68.3669C62.3896 68.3901 62.4083 68.4103 62.4305 68.4263C62.4526 68.4423 62.4777 68.4538 62.5043 68.46C62.5308 68.4663 62.5584 68.4673 62.5853 68.463L62.5847 68.4624Z" fill="#0C0C0C"/>
<path d="M35.634 64.9163L42.8812 63.5007C48.3556 61.2114 49.9088 51.6706 49.9088 51.6706C49.9088 51.6706 56.6651 58.1051 72.8124 54.2141C72.8124 54.2141 69.3048 31.6726 45.4619 38.5165C37.7741 40.7226 32.3284 48.5589 33.1383 58.9381C33.7059 66.2097 35.634 64.9163 35.634 64.9163Z" fill="#0A0A0A"/>
<path d="M44.6716 72.3965C42.215 72.8908 39.6946 70.6635 39.1993 68.2062C38.704 65.749 40.4238 63.9941 42.8804 63.4995L44.4777 64.891L46.7832 71.9709L44.6716 72.3965Z" fill="#E98862"/>
<path d="M63.5463 57.2918C64.161 56.8571 64.8798 56.593 65.6296 56.5263C66.0063 56.4901 66.3864 56.5112 66.7569 56.5888C67.1304 56.6649 67.493 56.7876 67.836 56.954L67.8466 56.959C67.8846 56.9758 67.9277 56.9771 67.9666 56.9625C68.0056 56.9479 68.0372 56.9188 68.0549 56.8811C68.0726 56.8435 68.0749 56.8005 68.0613 56.7613C68.0476 56.722 68.0192 56.6896 67.982 56.671C67.6185 56.4791 67.2323 56.3337 66.8325 56.2383C66.43 56.1404 66.0149 56.1036 65.6014 56.1291C64.7638 56.1754 63.954 56.4454 63.2562 56.9109C63.2301 56.9285 63.2079 56.9511 63.1906 56.9773C63.1733 57.0036 63.1614 57.033 63.1555 57.0638C63.1496 57.0947 63.1498 57.1264 63.1562 57.1572C63.1626 57.188 63.175 57.2172 63.1926 57.2432C63.2103 57.2691 63.233 57.2914 63.2593 57.3086C63.2856 57.3258 63.315 57.3376 63.3459 57.3435C63.3767 57.3493 63.4085 57.349 63.4392 57.3425C63.47 57.336 63.4992 57.3236 63.5251 57.3058L63.5307 57.3021L63.5463 57.2918Z" fill="#0C0C0C"/>
<path d="M56.9261 58.2067C56.1031 58.0429 55.2513 58.1031 54.4595 58.3808C54.0681 58.5156 53.6992 58.7084 53.365 58.9528C53.0322 59.194 52.7311 59.4762 52.4688 59.7927C52.4424 59.8242 52.4291 59.8647 52.4318 59.9057C52.4345 59.9468 52.453 59.9851 52.4834 60.0128C52.5138 60.0405 52.5538 60.0554 52.5949 60.0543C52.636 60.0532 52.6751 60.0362 52.704 60.0069L52.7124 59.9981C52.9655 59.7131 53.2533 59.461 53.5692 59.2477C53.8819 59.0344 54.2249 58.8696 54.5868 58.7589C55.305 58.5333 56.0702 58.502 56.8045 58.6682L56.8226 58.6729C56.8842 58.6878 56.9492 58.6777 57.0034 58.6447C57.0575 58.6116 57.0963 58.5585 57.1112 58.4969C57.1261 58.4352 57.116 58.3702 57.083 58.3161C57.05 58.262 56.9968 58.2232 56.9352 58.2082L56.9261 58.2067Z" fill="#0C0C0C"/>
<path d="M42.8861 63.3813C47.7577 61.5676 49.3744 58.2035 49.8722 55.7001C50.1944 54.0304 50.1643 52.3119 49.7837 50.6546L49.633 50.6962C50.0078 52.3319 50.0368 54.0278 49.718 55.6753C49.2265 58.1379 47.6329 61.4481 42.8314 63.2352L42.8861 63.3813Z" fill="#0C0C0C"/>
<path d="M81.3476 90.6868L127.605 106.149L114.024 112.186L137.089 64.8676L155.94 73.6526L134.539 121.746C133.457 124.178 131.536 126.14 129.126 127.272C126.717 128.404 123.981 128.632 121.418 127.914L120.958 127.783L74.0006 114.6L81.3476 90.6868Z" fill="#367CFF"/>
<path d="M52.2691 97.8818C41.6084 97.3792 41.1597 88.3309 41.1597 88.3309C41.1597 88.3309 35.8775 88.6724 32.3662 89.1474C26.6175 89.925 22.825 91.8744 19.8068 94.8923C16.9994 97.7001 15.2901 100.738 17.0988 120.131C18.4084 134.173 17.4869 165.06 17.4869 165.06H82.4508C82.4508 165.06 86.9871 120.437 87.525 114.117C88.5513 102.05 91.451 99.3862 85.5759 93.1703C81.3153 88.6624 70.316 88.3309 65.8888 88.3315C65.8166 88.3315 66.7872 98.5663 52.2691 97.8818Z" fill="#367CFF"/>
<path d="M64.7458 70.1547C62.6511 71.2198 60.2611 71.5566 57.9536 71.1119C57.8737 71.0969 57.7912 71.105 57.7157 71.1351C57.6403 71.1653 57.5749 71.2163 57.5273 71.2822C57.4798 71.3481 57.4519 71.4262 57.4471 71.5073C57.4422 71.5884 57.4605 71.6693 57.4999 71.7404C58.1878 72.9524 59.8195 75.0238 62.6188 74.1795C64.4262 73.6341 65.1095 71.7748 65.3628 70.6244C65.3801 70.5448 65.3743 70.4619 65.3462 70.3855C65.3181 70.3091 65.2687 70.2423 65.2039 70.193C65.1391 70.1437 65.0616 70.1139 64.9804 70.1071C64.8993 70.1003 64.8179 70.1168 64.7458 70.1547Z" fill="white"/>
<path d="M64.8768 60.8387C65.4358 60.8387 65.889 60.3855 65.889 59.8265C65.889 59.2674 65.4358 58.8142 64.8768 58.8142C64.3177 58.8142 63.8646 59.2674 63.8646 59.8265C63.8646 60.3855 64.3177 60.8387 64.8768 60.8387Z" fill="#0C0C0C"/>
<path d="M55.1506 62.5414C55.7096 62.5414 56.1628 62.0882 56.1628 61.5292C56.1628 60.9701 55.7096 60.5169 55.1506 60.5169C54.5916 60.5169 54.1384 60.9701 54.1384 61.5292C54.1384 62.0882 54.5916 62.5414 55.1506 62.5414Z" fill="#0C0C0C"/>
<path d="M87.3805 118.514C87.374 118.514 87.3674 118.514 87.3608 118.514C87.3197 118.508 87.2824 118.487 87.257 118.454C87.2315 118.422 87.2201 118.38 87.2251 118.339L88.2311 110.185C88.2332 110.164 88.2395 110.144 88.2495 110.126C88.2595 110.108 88.273 110.092 88.2893 110.08C88.3055 110.067 88.3242 110.058 88.3441 110.053C88.364 110.047 88.3848 110.046 88.4052 110.049C88.4256 110.051 88.4453 110.058 88.4632 110.068C88.4811 110.078 88.4968 110.092 88.5094 110.108C88.5221 110.124 88.5314 110.143 88.5368 110.163C88.5423 110.182 88.5438 110.203 88.5413 110.223L87.5353 118.378C87.5303 118.415 87.5119 118.45 87.4834 118.475C87.4549 118.5 87.4184 118.513 87.3805 118.514Z" fill="#0C0C0C"/>
<path d="M251.819 55.5909C251.819 55.5909 247.944 51.239 248.394 43.089C248.742 36.7787 253.609 41.882 253.609 41.882C253.609 41.882 253.904 37.3406 257.039 38.422C260.173 39.5033 261.054 44.5109 261.054 44.5109" fill="#0C0C0C"/>
<path d="M273.598 42.2607C273.598 42.2607 289.25 47.1636 279.148 67.6834L277.714 67.4958L274.803 67.1159" fill="#0C0C0C"/>
<path d="M251.332 89.0778C251.404 89.0685 252.199 102.271 267.537 101.12C278.154 100.324 281.94 89.0594 282.184 89.0594C281.039 88.8158 279.111 88.4621 278.603 88.1907C276.931 87.2923 274.862 86.3576 274.323 83.1108C274.012 81.2393 274.539 71.6659 274.377 69.7722L258.079 73.4099C258.307 77.4087 259.9 86.6791 254.314 88.3198C253.384 88.5913 252.382 88.8408 251.332 89.0778Z" fill="#E98862"/>
<path opacity="0.52" d="M257.85 84.5315C258.106 83.7087 258.27 82.8603 258.34 82.0017C258.52 80.0426 258.484 78.0696 258.234 76.1182C261.547 75.6712 264.668 74.304 267.242 72.1719C267.545 73.2895 269.209 78.1733 268.748 79.2356C267.877 81.2434 263.784 84.5315 257.85 84.5315Z" fill="#0C0C0C"/>
<path d="M259.805 80.0606C266.223 80.7519 274.564 78.2719 276.38 69.7339L278.018 62.0298C279.831 53.4931 276.82 45.617 268.781 43.9081C260.742 42.1992 253.261 47.8435 251.447 56.3815L250.721 59.7921C250.493 60.9675 250.345 62.1571 250.278 63.3526C250.078 66.5109 249.787 71.3155 251.244 74.8953C252.62 78.275 255.704 79.6187 259.805 80.0606Z" fill="#E98862"/>
<path d="M254.706 60.391C255.265 60.391 255.718 59.9378 255.718 59.3787C255.718 58.8197 255.265 58.3665 254.706 58.3665C254.147 58.3665 253.694 58.8197 253.694 59.3787C253.694 59.9378 254.147 60.391 254.706 60.391Z" fill="#0C0C0C"/>
<path d="M264.32 61.4031C264.879 61.4031 265.332 60.9499 265.332 60.3908C265.332 59.8318 264.879 59.3786 264.32 59.3786C263.761 59.3786 263.308 59.8318 263.308 60.3908C263.308 60.9499 263.761 61.4031 264.32 61.4031Z" fill="#0C0C0C"/>
<path d="M275.328 72.2289C277.771 72.7483 280.307 70.5556 280.826 68.1125C281.346 65.6693 279.651 63.9013 277.209 63.3819L275.602 64.7512L273.227 71.7823L275.328 72.2289Z" fill="#E98862"/>
<path d="M273.677 67.8076C273.677 67.8076 275.264 55.5306 271.741 54.0506C269.395 53.065 262.771 55.3521 257.485 53.2091C255.173 52.271 252.772 52.4117 252.314 53.5009C252.132 53.9321 251.923 47.1733 256.664 43.0206C260.439 39.7141 270.466 40.5669 274.673 42.7364C286.321 48.7431 277.609 64.0161 277.609 64.0161L276.225 68.0812L273.677 67.8076Z" fill="#0C0C0C"/>
<g opacity="0.52">
<path d="M257.34 68.6859L257.324 68.6834C256.536 68.518 255.233 68.1518 255.356 67.5636C255.459 67.0755 257.901 62.0854 258.18 61.5182C258.204 61.4694 258.246 61.4321 258.298 61.4145C258.349 61.3969 258.405 61.4004 258.454 61.4244C258.503 61.4483 258.54 61.4906 258.558 61.5421C258.575 61.5935 258.572 61.6498 258.548 61.6986C257.464 63.9082 255.827 67.316 255.757 67.6478C255.806 67.8041 256.592 68.1109 257.407 68.2819C257.459 68.2934 257.504 68.3241 257.533 68.3676C257.562 68.4112 257.574 68.4643 257.565 68.5161C257.556 68.5678 257.528 68.6143 257.486 68.6459C257.444 68.6775 257.392 68.6918 257.34 68.6859Z" fill="#0C0C0C"/>
</g>
<path d="M257.158 56.2123C256.384 55.8217 255.519 55.6471 254.654 55.7066C254.229 55.7334 253.811 55.8237 253.412 55.9746C253.018 56.1221 252.645 56.3187 252.3 56.56C252.242 56.5967 252.202 56.6545 252.186 56.7211C252.171 56.7877 252.182 56.8577 252.218 56.9158C252.254 56.974 252.311 57.0158 252.378 57.0321C252.444 57.0485 252.514 57.038 252.573 57.0031L252.591 56.9928C252.907 56.7968 253.246 56.6413 253.601 56.53C253.951 56.4182 254.316 56.3601 254.683 56.3577C255.409 56.347 256.124 56.5284 256.757 56.8833L256.781 56.8974C256.825 56.9238 256.875 56.9412 256.926 56.9485C256.977 56.9559 257.029 56.953 257.079 56.9402C257.129 56.9274 257.176 56.9048 257.217 56.8737C257.258 56.8427 257.293 56.8038 257.319 56.7593C257.345 56.7148 257.362 56.6655 257.369 56.6144C257.376 56.5633 257.373 56.5113 257.36 56.4614C257.346 56.4115 257.323 56.3648 257.292 56.3238C257.261 56.2828 257.222 56.2484 257.177 56.2226L257.158 56.2123Z" fill="#0C0C0C"/>
<path d="M262.946 57.7768C263.649 57.5964 264.387 57.6049 265.086 57.8015C265.44 57.8984 265.777 58.0482 266.086 58.2459C266.401 58.4448 266.689 58.6823 266.944 58.9529L266.958 58.9669C267.006 59.0137 267.071 59.04 267.138 59.0404C267.205 59.0408 267.27 59.0153 267.318 58.9691C267.367 58.923 267.396 58.8598 267.399 58.7927C267.403 58.7257 267.38 58.6599 267.336 58.6092C267.065 58.2876 266.754 58.0015 266.412 57.7577C266.065 57.5097 265.684 57.315 265.28 57.1798C264.46 56.8997 263.579 56.8457 262.731 57.0235C262.681 57.0344 262.633 57.0552 262.591 57.0845C262.549 57.1138 262.513 57.1512 262.485 57.1944C262.429 57.2817 262.41 57.3877 262.432 57.4891C262.454 57.5905 262.515 57.679 262.603 57.735C262.69 57.7911 262.796 57.8102 262.898 57.7881L262.918 57.7831L262.946 57.7768Z" fill="#0C0C0C"/>
<path d="M256.101 70.58C258.381 71.1496 260.786 70.9432 262.935 69.9934C263.009 69.9609 263.092 69.9503 263.172 69.9628C263.252 69.9753 263.327 70.0104 263.389 70.064C263.45 70.1175 263.494 70.1874 263.517 70.2653C263.54 70.3433 263.54 70.4262 263.518 70.5043C263.118 71.8399 261.992 74.2255 259.075 74.0278C257.191 73.9009 256.109 72.2414 255.604 71.1769C255.569 71.1031 255.556 71.0209 255.566 70.9398C255.576 70.8588 255.609 70.7824 255.662 70.7196C255.714 70.6569 255.783 70.6104 255.861 70.5856C255.939 70.5609 256.022 70.5589 256.101 70.58Z" fill="white"/>
<path d="M265.148 44.7697C266.237 42.2125 265.712 39.5394 263.974 38.7993C262.237 38.0591 259.945 39.5322 258.856 42.0895C257.767 44.6467 258.292 47.3198 260.029 48.0599C261.767 48.8 264.058 47.327 265.148 44.7697Z" fill="#0C0C0C"/>
<path d="M267.775 97.8818C278.436 97.3792 278.884 88.3309 278.884 88.3309C278.884 88.3309 284.167 88.6724 287.678 89.1474C293.427 89.925 297.219 91.8744 300.237 94.8923C303.045 97.7001 304.754 100.738 302.945 120.131C301.636 134.173 302.558 165.06 302.558 165.06H237.594C237.594 165.06 233.057 120.438 232.519 114.117C231.493 102.05 228.593 99.3862 234.468 93.1703C238.729 88.6624 249.728 88.3309 254.156 88.3315C254.227 88.3315 253.258 98.5663 267.775 97.8818Z" fill="#367CFF"/>
<path d="M232.366 95.9648L215.57 131.573L182.447 106.664L169.291 124.159L213.151 157.141C213.543 157.433 213.953 157.7 214.378 157.942C215.631 158.644 217.011 159.092 218.437 159.261C219.864 159.431 221.31 159.317 222.692 158.927C224.075 158.538 225.367 157.879 226.495 156.99C227.624 156.101 228.566 154.999 229.268 153.745L229.458 153.407L255.083 107.668L232.366 95.9648Z" fill="#367CFF"/>
<path d="M305.05 165.372H9.20772C9.12479 165.372 9.04525 165.339 8.98661 165.281C8.92797 165.222 8.89502 165.142 8.89502 165.06C8.89502 164.977 8.92797 164.897 8.98661 164.838C9.04525 164.78 9.12479 164.747 9.20772 164.747H305.05C305.133 164.747 305.212 164.78 305.271 164.838C305.33 164.897 305.363 164.977 305.363 165.06C305.363 165.142 305.33 165.222 305.271 165.281C305.212 165.339 305.133 165.372 305.05 165.372Z" fill="#292A2E"/>
<path d="M240.702 118.548H82.2813V172.699H240.702V118.548Z" fill="white"/>
<path d="M240.858 172.856H82.1249V118.392H240.858V172.856ZM82.4376 172.543H240.545V118.704H82.4376V172.543Z" fill="#0C0C0C"/>
<path d="M74.4587 135.097L84.2378 130.73C84.4527 130.634 84.6852 130.584 84.9205 130.583C85.1559 130.582 85.3889 130.629 85.6047 130.723C85.8205 130.817 86.0144 130.955 86.1741 131.128C86.3338 131.301 86.4557 131.505 86.5321 131.727C86.6604 132.143 86.63 132.591 86.4467 132.985C86.2634 133.379 85.9402 133.691 85.5399 133.86L83.4429 134.798L91.389 134.88C92.2727 134.874 93.3609 135.431 93.3027 136.423C93.3053 136.806 93.1779 137.179 92.9414 137.48C92.705 137.781 92.3733 137.994 92.0006 138.082C92.0028 138.091 92.0041 138.099 92.0044 138.108C92.0035 138.114 92.0021 138.121 92.0003 138.127L93.3631 138.117C93.6153 138.116 93.8646 138.17 94.0931 138.277C94.3215 138.384 94.5232 138.541 94.6835 138.735C94.8438 138.93 94.9587 139.158 95.0198 139.403C95.0809 139.647 95.0866 139.903 95.0367 140.15C94.9498 140.538 94.7323 140.884 94.4205 141.131C94.1088 141.378 93.7218 141.51 93.3243 141.505L92.7445 141.509C92.7369 141.526 92.7263 141.542 92.7133 141.555C93.1056 141.643 93.4538 141.868 93.6956 142.189C93.9374 142.51 94.0571 142.907 94.0332 143.308C93.9944 143.747 93.7916 144.155 93.4653 144.45C93.139 144.746 92.7133 144.908 92.273 144.903L90.8327 144.913C90.8529 144.928 90.8696 144.946 90.8813 144.968C90.893 144.99 90.8995 145.014 90.9002 145.039C90.8989 145.068 90.8892 145.097 90.8721 145.121C91.1998 145.296 91.4607 145.575 91.6148 145.913C91.7689 146.251 91.8075 146.631 91.7248 146.993C91.6302 147.372 91.4105 147.708 91.1013 147.946C90.7921 148.184 90.4116 148.311 90.0212 148.307L77.8696 148.393C76.1698 148.405 74.5051 147.91 73.0888 146.969C71.6725 146.029 70.5693 144.688 69.9204 143.117C69.3609 141.762 69.3517 140.242 69.8947 138.881C70.4378 137.519 71.4902 136.423 72.8285 135.825L74.4587 135.097Z" fill="#E98862"/>
<g opacity="0.2">
<path d="M84.1349 138.039C84.1355 138.08 84.1522 138.119 84.1815 138.148C84.2107 138.177 84.2502 138.193 84.2913 138.193L91.848 138.261C91.8895 138.261 91.9294 138.245 91.959 138.216C91.9886 138.187 92.0054 138.148 92.0058 138.106C92.0062 138.065 91.99 138.025 91.961 137.995C91.9319 137.966 91.8923 137.949 91.8508 137.948L84.2941 137.88C84.2526 137.88 84.2128 137.897 84.1835 137.926C84.1542 137.955 84.1377 137.995 84.1377 138.036L84.1349 138.039Z" fill="#0C0C0C"/>
</g>
<g opacity="0.2">
<path d="M84.013 141.372C84.0136 141.413 84.0303 141.452 84.0595 141.481C84.0888 141.51 84.1282 141.526 84.1693 141.526L92.6026 141.602C92.6441 141.602 92.6838 141.586 92.7132 141.556C92.7425 141.527 92.7589 141.487 92.7589 141.446C92.7575 141.405 92.7406 141.366 92.7116 141.337C92.6826 141.308 92.6436 141.291 92.6026 141.29L84.1693 141.214C84.1487 141.213 84.1282 141.217 84.109 141.225C84.0899 141.233 84.0724 141.244 84.0578 141.259C84.0431 141.273 84.0314 141.291 84.0235 141.31C84.0155 141.329 84.0114 141.349 84.0114 141.37L84.013 141.372Z" fill="#0C0C0C"/>
</g>
<g opacity="0.2">
<path d="M83.86 144.979C83.8606 145.02 83.8773 145.059 83.9065 145.088C83.9358 145.117 83.9752 145.133 84.0163 145.133L90.7435 145.194C90.785 145.194 90.8249 145.178 90.8545 145.149C90.8841 145.12 90.9009 145.08 90.9013 145.039C90.9016 144.997 90.8855 144.957 90.8565 144.928C90.8274 144.898 90.7878 144.881 90.7463 144.881L84.0192 144.82C83.9777 144.82 83.9379 144.837 83.9086 144.866C83.8793 144.895 83.8628 144.935 83.8628 144.977L83.86 144.979Z" fill="#0C0C0C"/>
</g>
<path d="M77.2578 152.51L23.0392 164.835C21.2381 165.031 19.416 164.807 17.7159 164.18C16.0159 163.554 14.4841 162.542 13.2408 161.224C11.9975 159.906 11.0765 158.318 10.5501 156.585C10.0236 154.851 9.90604 153.019 10.2066 151.232L16.4112 101.325C16.9272 98.258 18.6404 95.5217 21.174 93.7179C23.7075 91.9142 26.8538 91.1907 29.9207 91.7067C32.9877 92.2227 35.724 93.9359 37.5278 96.4695C39.3315 99.003 40.055 102.149 39.539 105.216L36.5511 140.938L74.2205 132.413L77.2578 152.51Z" fill="#367CFF"/>
<path d="M28.9283 142.341C28.8891 142.341 28.8514 142.326 28.8227 142.299C28.7941 142.272 28.7766 142.236 28.7737 142.197C28.7708 142.157 28.7828 142.119 28.8072 142.088C28.8316 142.057 28.8667 142.037 28.9055 142.031L36.4607 140.417C36.481 140.414 36.5018 140.415 36.5218 140.42C36.5418 140.425 36.5607 140.433 36.5772 140.446C36.5938 140.458 36.6077 140.473 36.6182 140.491C36.6287 140.509 36.6356 140.528 36.6383 140.549C36.6444 140.59 36.634 140.631 36.6094 140.665C36.5848 140.698 36.548 140.72 36.507 140.726L28.9518 142.34C28.944 142.341 28.9362 142.341 28.9283 142.341Z" fill="#0C0C0C"/>
<path d="M24.6659 165.06C24.6244 165.062 24.5836 165.048 24.5523 165.021C24.5211 164.994 24.502 164.955 24.4994 164.913C24.4967 164.872 24.5105 164.831 24.538 164.8C24.5654 164.769 24.6041 164.75 24.6455 164.747L76.9175 152.435L73.9556 132.641L36.511 140.725C36.4868 140.728 36.4622 140.725 36.4392 140.717C36.4161 140.709 36.3952 140.696 36.3781 140.679C36.3611 140.661 36.3484 140.64 36.3411 140.616C36.3338 140.593 36.3322 140.568 36.3362 140.544L38.4367 120.134C38.4398 120.113 38.447 120.094 38.4578 120.076C38.4686 120.059 38.4828 120.043 38.4996 120.031C38.5164 120.02 38.5354 120.011 38.5556 120.007C38.5757 120.002 38.5965 120.002 38.6168 120.005C38.6577 120.012 38.6941 120.035 38.7182 120.069C38.7422 120.103 38.7519 120.145 38.745 120.186L36.6811 140.386L74.0284 132.297C74.0485 132.291 74.0695 132.289 74.0902 132.292C74.1109 132.295 74.1308 132.302 74.1488 132.312C74.1668 132.323 74.1825 132.337 74.195 132.353C74.2075 132.37 74.2165 132.389 74.2217 132.409L77.2589 152.508C77.2685 152.547 77.2624 152.589 77.2418 152.624C77.2212 152.659 77.1877 152.685 77.1486 152.695L24.6862 165.058C24.6795 165.059 24.6727 165.06 24.6659 165.06Z" fill="#0C0C0C"/>
<path d="M245.585 144.478L235.806 140.111C235.591 140.015 235.359 139.965 235.123 139.964C234.888 139.963 234.655 140.01 234.439 140.104C234.224 140.198 234.03 140.336 233.87 140.509C233.71 140.682 233.589 140.886 233.512 141.108C233.384 141.524 233.414 141.972 233.597 142.366C233.781 142.76 234.104 143.072 234.504 143.241L236.601 144.179L228.655 144.261C227.772 144.255 226.683 144.812 226.742 145.804C226.739 146.187 226.866 146.56 227.103 146.861C227.339 147.163 227.671 147.375 228.044 147.463C228.041 147.472 228.04 147.48 228.04 147.489C228.04 147.495 228.042 147.502 228.044 147.508L226.681 147.498C226.429 147.497 226.18 147.551 225.951 147.658C225.723 147.765 225.521 147.921 225.361 148.116C225.2 148.311 225.085 148.539 225.024 148.784C224.963 149.028 224.957 149.284 225.007 149.531C225.094 149.919 225.312 150.265 225.624 150.512C225.935 150.758 226.322 150.891 226.72 150.886L227.3 150.89C227.307 150.907 227.318 150.922 227.331 150.936C226.939 151.024 226.59 151.249 226.349 151.57C226.107 151.891 225.987 152.288 226.011 152.689C226.05 153.128 226.253 153.536 226.579 153.831C226.905 154.127 227.331 154.289 227.772 154.284L229.212 154.294C229.192 154.308 229.175 154.327 229.163 154.349C229.151 154.371 229.145 154.395 229.144 154.42C229.145 154.449 229.155 154.478 229.172 154.502C228.844 154.677 228.584 154.956 228.43 155.294C228.275 155.632 228.237 156.012 228.319 156.374C228.414 156.753 228.634 157.089 228.943 157.327C229.252 157.565 229.633 157.692 230.023 157.688L242.175 157.774C243.875 157.786 245.54 157.29 246.956 156.35C248.372 155.41 249.475 154.068 250.124 152.497C250.684 151.142 250.693 149.622 250.15 148.261C249.607 146.899 248.554 145.803 247.216 145.205L245.585 144.478Z" fill="#E98862"/>
<g opacity="0.2">
<path d="M235.909 147.42C235.908 147.461 235.892 147.5 235.862 147.529C235.833 147.558 235.794 147.574 235.753 147.574L228.196 147.642C228.175 147.642 228.155 147.638 228.136 147.631C228.117 147.623 228.1 147.612 228.085 147.597C228.07 147.583 228.059 147.566 228.051 147.547C228.043 147.528 228.038 147.508 228.038 147.487C228.038 147.467 228.042 147.446 228.05 147.427C228.057 147.408 228.069 147.391 228.083 147.376C228.097 147.362 228.114 147.35 228.133 147.342C228.152 147.334 228.173 147.33 228.193 147.329L235.75 147.261C235.791 147.261 235.831 147.278 235.86 147.307C235.89 147.336 235.906 147.376 235.906 147.418L235.909 147.42Z" fill="#0C0C0C"/>
</g>
<g opacity="0.2">
<path d="M236.031 150.753C236.03 150.794 236.014 150.833 235.985 150.862C235.956 150.891 235.917 150.907 235.876 150.907L227.443 150.983C227.401 150.983 227.361 150.967 227.332 150.938C227.303 150.908 227.286 150.868 227.286 150.827C227.288 150.786 227.305 150.747 227.334 150.718C227.363 150.689 227.402 150.672 227.443 150.671L235.876 150.595C235.917 150.595 235.957 150.611 235.986 150.64C236.016 150.67 236.032 150.709 236.032 150.751L236.031 150.753Z" fill="#0C0C0C"/>
</g>
<g opacity="0.2">
<path d="M236.184 154.36C236.184 154.401 236.167 154.44 236.138 154.469C236.108 154.498 236.069 154.514 236.028 154.514L229.301 154.575C229.28 154.575 229.26 154.571 229.241 154.563C229.222 154.556 229.204 154.544 229.19 154.53C229.175 154.515 229.163 154.498 229.155 154.479C229.147 154.461 229.143 154.44 229.143 154.42C229.143 154.399 229.147 154.379 229.154 154.36C229.162 154.341 229.173 154.323 229.188 154.309C229.202 154.294 229.219 154.282 229.238 154.274C229.257 154.266 229.277 154.262 229.298 154.262L236.025 154.201C236.066 154.201 236.106 154.218 236.136 154.247C236.165 154.276 236.181 154.316 236.181 154.358L236.184 154.36Z" fill="#0C0C0C"/>
</g>
<path d="M245.913 161.891L297.005 164.835C298.806 165.031 300.628 164.807 302.328 164.18C304.028 163.554 305.56 162.542 306.803 161.224C308.047 159.906 308.968 158.318 309.494 156.585C310.02 154.851 310.138 153.019 309.837 151.232L303.634 101.323C303.379 99.8047 302.826 98.3513 302.009 97.0461C301.192 95.7409 300.126 94.6094 298.871 93.7163C297.617 92.8232 296.199 92.1859 294.698 91.8408C293.197 91.4957 291.643 91.4496 290.125 91.7051C288.606 91.9606 287.153 92.5127 285.847 93.3299C284.542 94.1471 283.411 95.2134 282.518 96.4678C281.624 97.7223 280.987 99.1404 280.642 100.641C280.297 102.142 280.251 103.696 280.506 105.215L283.494 143.125L246.138 141.792L245.913 161.891Z" fill="#367CFF"/>
<path d="M291.116 142.967C291.155 142.967 291.193 142.952 291.221 142.925C291.25 142.898 291.268 142.861 291.271 142.822C291.274 142.783 291.262 142.744 291.237 142.713C291.213 142.683 291.178 142.662 291.139 142.656L283.584 142.606C283.563 142.603 283.543 142.604 283.523 142.609C283.502 142.613 283.484 142.622 283.467 142.634C283.45 142.647 283.437 142.662 283.426 142.68C283.415 142.698 283.409 142.717 283.406 142.738C283.4 142.779 283.41 142.82 283.435 142.854C283.459 142.887 283.496 142.909 283.537 142.915L291.093 142.965C291.1 142.966 291.108 142.967 291.116 142.967Z" fill="#0C0C0C"/>
<path d="M295.379 165.06C295.42 165.062 295.461 165.048 295.492 165.021C295.523 164.993 295.542 164.955 295.545 164.913C295.548 164.872 295.534 164.831 295.506 164.8C295.479 164.769 295.44 164.75 295.399 164.747L246.253 161.818L246.4 142.024L283.532 142.915C283.557 142.918 283.581 142.915 283.604 142.907C283.627 142.899 283.648 142.886 283.665 142.869C283.682 142.851 283.695 142.83 283.702 142.806C283.71 142.783 283.711 142.758 283.707 142.734L281.607 120.135C281.604 120.115 281.597 120.095 281.586 120.078C281.575 120.06 281.561 120.045 281.544 120.033C281.527 120.021 281.508 120.012 281.488 120.008C281.468 120.003 281.447 120.003 281.427 120.007C281.407 120.01 281.387 120.017 281.37 120.028C281.352 120.039 281.337 120.053 281.325 120.07C281.313 120.087 281.305 120.106 281.3 120.126C281.296 120.146 281.295 120.167 281.298 120.187L283.364 142.576L246.329 141.679C246.309 141.673 246.288 141.672 246.267 141.674C246.247 141.677 246.227 141.684 246.209 141.694C246.191 141.705 246.175 141.719 246.163 141.736C246.15 141.752 246.141 141.771 246.136 141.792L245.913 161.89C245.903 161.93 245.909 161.971 245.93 162.006C245.95 162.041 245.984 162.067 246.023 162.078L295.357 165.056C295.364 165.058 295.371 165.059 295.379 165.06Z" fill="#0C0C0C"/>
<path d="M119.84 153.979H115.687L113.358 144.944C113.271 144.622 113.124 143.958 112.917 142.95C112.709 141.942 112.589 141.266 112.558 140.921C112.511 141.344 112.393 142.024 112.205 142.962C112.016 143.899 111.871 144.567 111.77 144.968L109.452 153.979H105.311L100.923 136.78H104.511L106.711 146.168C107.095 147.902 107.374 149.404 107.546 150.674C107.593 150.227 107.701 149.535 107.87 148.598C108.039 147.661 108.197 146.933 108.346 146.415L110.852 136.78H114.299L116.805 146.415C116.914 146.847 117.051 147.506 117.216 148.392C117.381 149.278 117.506 150.039 117.592 150.674C117.67 150.063 117.795 149.3 117.967 148.386C118.139 147.472 118.295 146.733 118.436 146.169L120.625 136.781H124.213L119.84 153.979Z" fill="#0CBC8B"/>
<path d="M136.286 153.979H126.38V136.78H136.286V139.769H130.028V143.545H135.851V146.532H130.028V150.967H136.286V153.979Z" fill="#0CBC8B"/>
<path d="M139.874 153.979V136.78H143.521V150.968H150.497V153.98L139.874 153.979Z" fill="#0CBC8B"/>
<path d="M160.792 139.567C160.173 139.539 159.558 139.666 159.001 139.936C158.444 140.206 157.963 140.611 157.602 141.114C156.849 142.146 156.473 143.583 156.473 145.426C156.473 149.262 157.912 151.18 160.79 151.18C162.293 151.122 163.776 150.815 165.179 150.273V153.332C163.676 153.937 162.069 154.237 160.449 154.214C157.948 154.214 156.034 153.455 154.708 151.938C153.382 150.42 152.719 148.241 152.72 145.402C152.684 143.782 153.018 142.175 153.696 140.703C154.298 139.412 155.276 138.333 156.502 137.608C157.808 136.869 159.29 136.497 160.79 136.532C162.538 136.551 164.259 136.965 165.825 137.744L164.648 140.708C164.016 140.407 163.368 140.14 162.707 139.908C162.092 139.688 161.445 139.572 160.792 139.567Z" fill="#0CBC8B"/>
<path d="M184.449 145.356C184.449 148.202 183.743 150.391 182.331 151.92C180.92 153.45 178.896 154.214 176.261 154.214C173.626 154.214 171.603 153.449 170.191 151.92C168.779 150.391 168.073 148.195 168.073 145.332C168.073 142.469 168.781 140.283 170.197 138.774C171.612 137.264 173.642 136.509 176.284 136.509C178.927 136.509 180.949 137.27 182.349 138.791C183.75 140.313 184.45 142.501 184.449 145.356ZM171.897 145.356C171.897 147.277 172.261 148.724 172.991 149.697C173.721 150.669 174.811 151.155 176.261 151.155C179.171 151.155 180.626 149.222 180.626 145.356C180.626 141.481 179.179 139.544 176.285 139.544C174.834 139.544 173.74 140.032 173.001 141.009C172.263 141.985 171.895 143.434 171.897 145.356Z" fill="#0CBC8B"/>
<path d="M195.296 153.979L191.155 140.485H191.049C191.198 143.23 191.272 145.062 191.273 145.979V153.979H188.014V136.78H192.978L197.049 149.933H197.119L201.437 136.78H206.401V153.979H203.002V145.838C203.002 145.454 203.007 145.011 203.019 144.508C203.03 144.006 203.083 142.673 203.178 140.509H203.072L198.637 153.979H195.296Z" fill="#0CBC8B"/>
<path d="M220.636 153.979H210.73V136.78H220.636V139.769H214.378V143.545H220.201V146.532H214.378V150.967H220.636V153.979Z" fill="#0CBC8B"/>
</svg>
