<svg width="15" height="13" viewBox="0 0 15 13" fill="none" xmlns="http://www.w3.org/2000/svg">
<path d="M8.92208 1.92613C8.93799 1.87458 8.96547 1.82624 9.00294 1.78389C9.04041 1.74154 9.08715 1.706 9.14047 1.67931C9.1938 1.65262 9.25267 1.6353 9.31372 1.62833C9.37478 1.62136 9.43682 1.62489 9.49629 1.63871C10.3653 1.83521 11.1581 2.22891 11.7931 2.77928C12.4282 3.32964 12.8825 4.01676 13.1092 4.76988C13.1251 4.82143 13.1292 4.8752 13.1212 4.92811C13.1131 4.98103 13.0931 5.03205 13.0623 5.07826C13.0315 5.12448 12.9905 5.16498 12.9417 5.19746C12.8928 5.22994 12.837 5.25375 12.7775 5.26754C12.738 5.27655 12.6972 5.28116 12.6563 5.28125C12.553 5.28125 12.4526 5.25168 12.3707 5.19713C12.2887 5.14258 12.2299 5.06611 12.2033 4.97961C12.0184 4.36481 11.6477 3.80388 11.1293 3.35462C10.6109 2.90537 9.96368 2.58405 9.2543 2.42379C9.19476 2.41005 9.13893 2.38628 9.09 2.35383C9.04106 2.32137 9 2.28088 8.96914 2.23466C8.93828 2.18843 8.91824 2.13739 8.91017 2.08446C8.90209 2.03152 8.90614 1.97772 8.92208 1.92613ZM8.78555 4.04879C9.59356 4.23566 10.1127 4.68559 10.3283 5.38586C10.3549 5.47236 10.4137 5.54883 10.4957 5.60338C10.5776 5.65793 10.678 5.6875 10.7813 5.6875C10.8222 5.68741 10.863 5.6828 10.9025 5.67379C10.962 5.66 11.0178 5.63619 11.0667 5.60371C11.1155 5.57123 11.1565 5.53073 11.1873 5.48451C11.2181 5.4383 11.2381 5.38728 11.2462 5.33436C11.2542 5.28145 11.2501 5.22768 11.2342 5.17613C10.9342 4.20316 10.1502 3.52371 9.02754 3.26371C8.96807 3.24994 8.90604 3.24646 8.84501 3.25346C8.78397 3.26047 8.72513 3.27782 8.67184 3.30453C8.61854 3.33125 8.57184 3.3668 8.5344 3.40915C8.49696 3.45151 8.46951 3.49984 8.45362 3.55139C8.43773 3.60294 8.43371 3.65669 8.44179 3.70959C8.44987 3.76248 8.4699 3.81348 8.50072 3.85967C8.53154 3.90586 8.57256 3.94633 8.62143 3.97878C8.67031 4.01123 8.72607 4.03502 8.78555 4.04879ZM13.5867 8.89078C13.4822 9.57888 13.0923 10.2105 12.4898 10.6677C11.8873 11.1248 11.1133 11.3762 10.3125 11.375C5.66016 11.375 1.87501 8.09453 1.87501 4.0625C1.87357 3.36847 2.16369 2.69771 2.69118 2.17552C3.21867 1.65332 3.94745 1.31539 4.74141 1.22484C4.94218 1.2036 5.1455 1.2392 5.32101 1.32632C5.49652 1.41345 5.63481 1.54744 5.71524 1.70828L6.95274 4.10262V4.10871C7.01431 4.23183 7.03974 4.36625 7.02676 4.49997C7.01377 4.63368 6.96278 4.76253 6.87833 4.875C6.86778 4.88871 6.85665 4.90141 6.84493 4.9141L5.62501 6.16738C6.06387 6.94027 6.99669 7.7416 7.9002 8.12297L9.32637 7.07129C9.34038 7.06109 9.35505 7.05159 9.37032 7.04285C9.49998 6.9679 9.64916 6.92215 9.80436 6.90973C9.95956 6.89732 10.1159 6.91864 10.2592 6.97176L10.2668 6.97481L13.0272 8.0468C13.2131 8.11625 13.368 8.236 13.4689 8.38813C13.5698 8.54026 13.6111 8.7166 13.5867 8.89078ZM12.6563 8.78922C12.6563 8.78922 12.6522 8.78922 12.6498 8.78922L9.8959 7.72027L8.46915 8.77195C8.45531 8.78211 8.44083 8.79161 8.42579 8.80039C8.29088 8.87839 8.13493 8.92473 7.97318 8.93488C7.81142 8.94503 7.6494 8.91863 7.50294 8.85828C6.40547 8.39871 5.31153 7.45774 4.78067 6.51676C4.71037 6.39075 4.67883 6.25114 4.6891 6.11145C4.69936 5.97177 4.75109 5.83676 4.83926 5.71949C4.8492 5.70572 4.86037 5.69265 4.87266 5.68039L6.09376 4.42559L4.86329 2.03887C4.86306 2.03684 4.86306 2.0348 4.86329 2.03277C4.29508 2.09701 3.77337 2.33856 3.39587 2.71218C3.01837 3.08581 2.81097 3.56588 2.81251 4.0625C2.81468 5.78583 3.60555 7.43804 5.0116 8.65662C6.41765 9.87519 8.32405 10.5606 10.3125 10.5625C10.8852 10.5642 11.439 10.3851 11.8703 10.0586C12.3017 9.73217 12.5811 9.28073 12.6563 8.78871V8.78922Z" fill="#FFBE00"/>
</svg>
