<svg width="23" height="22" viewBox="0 0 23 22" fill="none" xmlns="http://www.w3.org/2000/svg">
<path fill-rule="evenodd" clip-rule="evenodd" d="M11.0963 10.9375C19.1095 10.9375 22.9782 14.3809 22.0071 20.8214C21.9161 21.4247 21.3377 21.875 20.6539 21.875H1.53867C0.854786 21.875 0.276396 21.4247 0.185428 20.8214C-0.785698 14.3809 3.08302 10.9375 11.0963 10.9375ZM11.0963 13.3681C9.71787 13.3681 8.51982 13.4701 7.49532 13.6786C2.92351 14.6089 6.43078 19.4444 11.0963 19.4444C15.7618 19.4444 19.269 14.6089 14.6972 13.6786C13.6727 13.4701 12.4747 13.3681 11.0963 13.3681ZM11.0963 0C14.1126 0 16.5578 2.17639 16.5578 4.86111C16.5578 7.54583 14.1126 9.72222 11.0963 9.72222C8.07997 9.72222 5.63478 7.54583 5.63478 4.86111C5.63478 2.17639 8.07997 0 11.0963 0ZM11.0963 2.43056C9.58812 2.43056 8.36552 3.51875 8.36552 4.86111C8.36552 6.20347 9.58812 7.29167 11.0963 7.29167C12.6044 7.29167 13.827 6.20347 13.827 4.86111C13.827 3.51875 12.6044 2.43056 11.0963 2.43056Z" fill="#333333"/>
</svg>
