<svg width="301" height="259" viewBox="0 0 301 259" fill="none" xmlns="http://www.w3.org/2000/svg">
<path d="M23.0998 0.776993C24.2665 1.29499 22.0498 3.28066 14.3498 8.11533C8.74984 11.7413 3.84984 14.245 3.6165 13.727C3.49984 13.2953 4.08317 12.173 5.13317 11.3097C6.18317 10.4463 6.64984 9.49666 6.18317 9.23766C5.24984 8.46066 8.98317 5.35266 13.4165 3.367C15.3998 2.41733 16.3332 1.72666 15.5165 1.72666C12.9498 1.72666 5.48317 7.25199 3.38317 10.7917C1.39984 13.8997 1.1665 16.9213 1.1665 38.1593C1.1665 51.282 1.63317 62.2463 2.09984 62.5053C3.14984 62.937 18.6665 56.0303 18.6665 55.0807C18.6665 54.7353 15.1665 56.203 10.8498 58.275C6.53317 60.347 2.79984 61.901 2.5665 61.7283C1.1665 60.6923 3.9665 58.7067 10.9665 55.5987C15.1665 53.7857 18.6665 51.7137 18.6665 51.023C18.6665 49.987 18.4332 49.987 17.2665 51.1093C16.4498 51.8863 12.7165 53.872 9.09984 55.5987C3.38317 58.275 2.33317 58.534 2.33317 57.239C2.33317 55.7713 14.9332 49.21 17.6165 49.21C18.1998 49.21 18.6665 48.7783 18.6665 48.2603C18.6665 47.397 13.7665 49.2963 6.7665 52.836C3.14984 54.649 2.33317 54.7353 2.33317 53.2677C2.33317 52.7497 6.0665 50.505 10.4998 48.433C14.9332 46.2747 18.4332 44.4617 18.1998 44.2027C17.8498 44.03 14.4665 45.4977 10.6165 47.397C2.9165 51.282 2.33317 51.4547 2.33317 49.8143C2.33317 49.21 5.94984 46.9653 10.4998 44.8933C14.9332 42.735 18.6665 40.663 18.6665 40.3177C18.6665 39.9723 16.9165 40.5767 14.9332 41.699C7.4665 45.7567 2.33317 47.656 2.33317 46.4473C2.33317 45.584 7.34984 42.735 18.5498 37.3823C18.7832 37.2097 18.7832 36.9507 18.5498 36.6917C18.1998 36.519 15.3998 37.7277 12.1332 39.368C3.9665 43.771 2.33317 44.289 2.33317 42.9077C2.33317 41.7853 15.5165 34.5333 17.6165 34.5333C18.1998 34.5333 18.6665 34.1017 18.6665 33.5837C18.6665 32.5477 17.7332 32.893 10.4998 36.6917C3.38317 40.404 2.33317 40.8357 2.33317 39.7997C2.33317 39.368 5.94984 37.1233 10.4998 34.7923C14.9332 32.5477 18.6665 30.303 18.6665 29.9577C18.6665 29.526 17.2665 30.044 15.5165 30.9937C6.53317 36.0873 2.33317 37.9867 2.44984 36.9507C2.44984 36.3463 6.0665 33.8427 10.4998 31.5117C14.9332 29.0943 18.6665 26.8497 18.6665 26.5043C18.6665 26.0727 15.2832 27.713 11.1998 30.1303C3.14984 34.8787 2.33317 35.1377 2.33317 33.3247C2.33317 32.634 5.94984 30.2167 10.4998 27.8857C14.9332 25.641 18.6665 23.2237 18.6665 22.533C18.6665 21.756 17.9665 21.9287 16.6832 23.051C13.0665 26.0727 2.33317 31.339 2.33317 30.044C2.33317 29.4397 4.08317 28.0583 6.18317 26.936C10.8498 24.5187 19.8332 18.5617 17.4998 19.5113C16.5665 19.8567 12.9498 21.9287 9.5665 24.0007C6.18317 26.159 3.14984 27.6267 2.68317 27.2813C2.2165 27.0223 2.44984 26.418 3.03317 26.0727C3.6165 25.641 7.1165 23.2237 10.8498 20.72C15.7498 17.353 17.8498 16.317 18.5498 17.1803C19.2498 17.9573 19.7165 17.7847 20.1832 16.4897C20.9998 13.8997 26.0165 12.691 31.6165 13.8133C34.0665 14.3313 36.3998 15.1083 36.7498 15.54C37.0998 15.9717 37.4498 24.6913 37.3332 34.7923C37.3332 44.9797 37.6832 53.4403 38.0332 53.7857C38.7332 54.3037 51.3332 48.5193 51.3332 47.656C51.3332 47.3107 48.1832 48.692 42.5832 51.541C39.8998 52.836 38.4998 53.0087 38.4998 51.8C38.4998 50.5913 54.1332 43.0803 54.5998 44.1163C54.8332 44.548 54.3665 45.584 53.4332 46.361C52.6165 47.138 52.4998 47.5697 53.3165 47.2243C54.1332 46.7927 54.5998 47.5697 54.5998 49.5553C54.5998 52.318 54.0165 52.836 47.4832 55.685C43.6332 57.4117 39.7832 58.6203 38.9665 58.3613C38.0332 58.1023 37.3332 58.793 37.0998 60.2607C36.8665 62.0737 35.8165 62.8507 32.6665 63.5413C28.8165 64.491 28.8165 64.5773 31.4998 64.9227C33.4832 65.0953 36.5165 64.232 40.8332 62.0737C49.1165 58.016 54.8332 55.8577 54.8332 56.8073C54.8332 57.239 48.5332 60.5197 40.8332 64.232C33.1332 67.9443 26.5998 71.3113 26.1332 71.743C25.7832 72.1747 31.4998 69.671 38.7332 66.2177C55.9998 57.9297 55.1832 58.275 54.5998 59.829C54.2498 61.383 24.1498 75.9733 21.4665 75.9733C20.5332 75.9733 19.9498 75.628 20.2998 75.1963C20.6498 74.851 19.4832 74.6783 17.7332 74.851C14.6998 75.1963 14.6998 75.1963 16.9165 73.815C18.1998 73.038 20.2998 71.8293 21.5832 71.1387C24.7332 69.412 21.2332 70.6207 17.1498 72.6927C15.3998 73.6423 14.2332 74.6783 14.5832 75.11C14.9332 75.4553 18.5498 76.2323 22.6332 76.8367L30.0998 77.8727L34.4165 84.693L38.7332 91.5133H45.4998C52.6165 91.5133 54.1332 90.909 52.9665 88.578C52.3832 87.3693 51.9165 87.4557 49.3498 88.9233C46.3165 90.7363 43.1665 91.168 43.1665 89.9593C43.1665 89.5277 44.9165 88.4917 47.1332 87.6283L51.0998 85.988L48.7665 81.6713C44.9165 74.5057 44.9165 74.5057 50.0498 70.3617C54.1332 67.081 56.2332 63.8867 54.2498 63.8867C53.3165 63.8867 44.3332 68.376 44.3332 68.8077C44.3332 69.0667 46.1998 68.376 48.4165 67.34C51.7998 65.786 52.4998 65.6997 52.4998 66.822C52.4998 67.5127 48.2998 70.1027 43.1665 72.6063C38.0332 75.0237 33.8332 77.182 33.8332 77.441C33.8332 77.8727 35.4665 77.182 40.0165 74.851C41.8832 73.9877 43.6332 73.4697 44.0998 73.815C44.9165 74.333 43.0498 75.628 37.7998 78.3907C36.5165 78.995 37.4498 78.736 39.8998 77.7863C45.4998 75.5417 46.5498 76.5777 41.7665 79.6857L37.9165 82.1893L41.6498 80.3763C43.6332 79.3403 45.4998 78.5633 45.7332 78.5633C46.4332 78.5633 49.3498 85.5563 48.7665 85.8153C48.5332 85.9017 46.4332 87.024 44.0998 88.319C41.1832 89.9593 39.5498 90.391 38.9665 89.7003C38.4998 89.096 39.0832 88.1463 40.3665 87.4557C45.9665 84.434 47.1332 83.7433 45.4998 84.2613C44.5665 84.6067 42.3498 85.6427 40.5998 86.506C37.9165 87.8873 37.3332 87.9737 37.3332 86.8513C37.3332 86.1607 39.1998 84.7793 41.4165 83.7433C43.6332 82.7073 45.4998 81.6713 45.4998 81.4987C45.4998 80.9807 43.8665 81.6713 39.5498 83.8297C36.2832 85.5563 34.1832 85.1247 36.3998 83.139C37.4498 82.1893 37.2165 82.103 35.5832 82.5347C33.8332 83.0527 33.5998 82.7937 34.0665 81.326C34.5332 80.29 34.2998 79.5993 33.7165 79.9447C33.1332 80.2037 32.6665 79.772 32.6665 79.0813C32.6665 78.3043 32.1998 77.7 31.4998 77.7C28.6998 77.7 30.7998 75.8007 36.7498 72.8653C40.2498 71.1387 43.1665 69.4983 43.1665 69.3257C43.1665 68.894 41.7665 69.4983 33.4832 73.6423C29.7498 75.4553 26.3665 76.7503 26.0165 76.4913C25.0832 75.8007 24.1498 76.3187 40.1332 68.7213C47.7165 65.1817 54.4832 62.419 54.9498 62.678C55.5332 62.937 55.9998 57.498 55.9998 50.5913C55.9998 43.6847 55.5332 37.9867 54.9498 37.9867C54.3665 37.9867 53.3165 38.591 52.4998 39.1953C50.3998 41.181 39.6665 46.0157 38.8498 45.4977C38.4998 45.1523 38.7332 44.3753 39.5498 43.6847C40.5998 42.735 40.5998 42.3897 39.5498 42.1307C38.2665 41.7853 52.2665 33.67 54.1332 33.67C56.4665 33.67 54.0165 35.742 48.4165 38.4183C44.9165 40.2313 41.9998 41.7853 41.9998 42.0443C41.9998 42.3033 43.3998 41.7853 45.1498 41.0083C46.7832 40.145 49.9332 38.7637 52.0332 37.814L55.7665 36.1737L55.8832 26.677C55.9998 20.8927 55.6498 17.353 54.9498 17.612C54.3665 17.871 54.1332 18.8207 54.4832 19.7703C54.8332 20.8927 52.9665 22.533 47.4832 25.8137C39.3165 30.562 38.4998 30.821 38.4998 29.008C38.4998 28.4037 40.4832 26.8497 43.0498 25.5547C45.4998 24.2597 48.7665 22.1877 50.2832 20.979C51.7998 19.7703 50.0498 20.5473 46.3165 22.7057C39.0832 27.0223 38.1498 27.454 38.7332 25.641C39.1998 24.2597 51.9165 16.4033 53.6665 16.4033C57.7498 16.4033 51.7998 6.82033 45.8498 3.79866L42.1165 1.98566L35.9332 6.216C28.9332 11.137 24.7332 13.3817 23.7998 12.7773C23.5665 12.5183 26.9498 10.101 31.4998 7.25199C35.9332 4.48933 39.6665 1.89933 39.6665 1.55399C39.6665 0.690659 34.1832 0.690659 33.5998 1.55399C33.4832 1.89933 28.8165 5.00732 23.3332 8.37433C17.8498 11.7413 11.8998 15.799 9.9165 17.353C7.23317 19.5977 7.69984 19.425 11.6665 16.6623C24.1498 8.20166 37.3332 0.604324 37.3332 2.07199C37.3332 2.41733 9.44984 20.979 5.13317 23.569C2.5665 25.0367 2.44984 25.0367 2.5665 22.4467C2.68317 20.202 4.54984 18.648 14.3498 12.2593C20.8832 8.11533 27.6498 3.71233 29.6332 2.41733L33.2498 0.0863266L27.4165 -7.62939e-06C23.7998 -7.62939e-06 22.1665 0.258995 23.0998 0.776993ZM29.7498 1.64033C29.0498 2.07199 26.3665 3.79866 23.7998 5.35266C21.1165 6.90666 15.1665 10.7053 10.6165 13.727C5.94984 16.7487 2.33317 18.648 2.33317 17.9573C2.33317 16.317 26.4832 0.863327 28.9332 0.863327C30.0998 0.863327 30.3332 1.12233 29.7498 1.64033ZM46.0832 4.83466C48.2998 6.12966 48.2998 6.30233 42.8165 10.0147C35.3498 15.022 30.5665 15.3673 36.5165 10.4463C38.9665 8.37433 38.9665 8.37433 35.2332 10.619C28.4665 14.5903 28.4665 12.0867 35.1165 7.68366C42.1165 3.10799 42.6998 2.93533 46.0832 4.83466ZM45.4998 12.0867C40.7165 15.1947 37.3332 16.4033 37.3332 15.022C37.3332 14.763 39.7832 12.8637 42.9332 10.7917C46.5498 8.28799 48.7665 7.33833 49.5832 7.85633C50.3998 8.46066 48.9998 9.92833 45.4998 12.0867ZM53.5498 13.727C53.4332 15.54 39.3165 23.7417 38.6165 22.3603C38.1498 21.3243 40.5998 19.425 48.9998 14.3313C51.2165 13.0363 52.2665 12.173 51.3332 12.6047C50.3998 12.95 47.3665 14.5903 44.5665 16.2307C37.0998 20.72 36.8665 18.648 44.3332 13.8133C50.0498 10.0147 50.8665 9.75566 52.2665 10.9643C52.9665 11.7413 53.6665 13.0363 53.5498 13.727ZM54.8332 24.1733C54.8332 25.0367 41.0665 32.8067 39.4332 32.8067C37.2165 32.8067 39.0832 31.2527 45.8498 27.454C53.3165 23.2237 54.8332 22.7057 54.8332 24.1733ZM54.8332 27.6267C54.8332 28.0583 51.7998 29.9577 48.1832 31.7707C39.0832 36.26 38.4998 36.519 38.4998 35.5693C38.4998 34.706 52.3832 26.8497 54.0165 26.7633C54.4832 26.7633 54.8332 27.1087 54.8332 27.6267ZM54.5998 31.2527C54.0165 32.375 40.9498 39.627 39.4332 39.7133C36.5165 39.7997 39.5498 37.037 45.8498 33.929C53.5498 30.1303 55.2998 29.526 54.5998 31.2527ZM54.8332 40.922C54.8332 41.958 41.2998 49.21 39.3165 49.21C36.8665 49.21 39.3165 47.138 45.8498 43.771C53.7832 39.4543 54.8332 39.109 54.8332 40.922ZM53.6665 55.3397C42.9332 60.1743 38.4998 61.901 38.4998 61.2967C38.4998 60.2607 54.0165 53.4403 54.8332 54.131C55.1832 54.39 54.5998 54.908 53.6665 55.3397ZM51.9165 89.7867C51.5665 90.2183 50.6332 90.65 50.0498 90.65C49.3498 90.65 49.2332 90.2183 49.5832 89.7867C49.9332 89.2687 50.8665 88.9233 51.4498 88.9233C52.1498 88.9233 52.2665 89.2687 51.9165 89.7867Z" fill="#395C86"/>
<path d="M41.2997 7.07934L39.083 9.065L41.7663 7.42467C44.2163 5.87067 44.9163 5.18 43.983 5.18C43.7497 5.18 42.583 6.04334 41.2997 7.07934Z" fill="#395C86"/>
<path d="M108.267 0.604305L105 0.949638V29.8713C105 52.7496 105.35 58.7066 106.517 58.1886C107.217 57.8433 110.95 56.0303 114.683 54.131C118.417 52.318 121.8 50.9366 122.033 51.1956C122.383 51.4546 120.283 52.836 117.367 54.39C110.483 57.8433 110.483 58.4476 117.25 55.426C121.917 53.354 124.717 50.5913 123.317 49.5553C122.967 49.2963 119.35 50.8503 115.15 53.095C107.333 57.1526 106.167 57.498 106.167 56.203C106.167 55.7713 109.783 53.6993 114.333 51.6273C122.617 47.8286 124.6 45.7566 123.083 42.3896C122.383 40.663 122.033 40.7493 115.733 43.8573C106.633 48.3466 106.167 48.6056 106.167 47.5696C106.167 47.0516 109.317 45.066 113.167 43.1666C117.017 41.2673 120.167 39.4543 120.167 39.1953C120.167 39.0226 117.367 40.145 114.1 41.8716C107.8 44.9796 106.167 45.4113 106.167 44.1163C106.167 43.253 120.4 35.742 121.683 36.0873C122.15 36.1736 122.5 34.447 122.5 32.2886V28.3173L114.8 32.375C110.6 34.6196 106.867 36.1736 106.517 35.9146C106.05 35.6556 106.05 35.3103 106.283 35.1376C115.85 29.6123 121.217 26.936 121.8 27.3676C122.15 27.713 122.5 26.418 122.5 24.5186C122.5 22.1876 122.15 21.497 121.45 22.3603C120.867 23.051 120.633 24.087 120.867 24.605C121.217 25.2093 118.65 27.195 115.267 29.0943C106.4 34.0153 106.283 34.1016 106.4 31.1663C106.517 29.008 107.8 27.8856 114.45 24.4323L122.383 20.2883L122.5 14.504V8.71964L118.767 11.3096C111.417 16.4033 106.167 19.166 106.283 17.9573C106.283 16.9213 117.25 9.49664 121.333 7.76997C122.267 7.33831 122.733 6.8203 122.383 6.47497C122.033 6.21597 118.3 8.20164 114.217 10.878C109.433 14.0723 106.633 15.3673 106.4 14.6766C106.05 13.986 107.1 12.7773 108.617 11.8276C114.217 8.54697 122.5 2.50364 122.5 1.81297C122.5 0.258972 115.967 -0.259029 108.267 0.604305ZM113.167 1.55397C113.167 1.98564 111.65 3.10797 109.783 4.05764L106.517 5.95697V3.79864C106.517 2.33097 106.983 1.81297 108.033 2.07197C108.85 2.33097 109.9 2.15831 110.25 1.72664C111.067 0.690639 113.167 0.604305 113.167 1.55397ZM120.517 1.72664C122.033 1.72664 116.55 6.0433 110.717 9.58297L106.517 12.0866L106.4 9.66931C106.4 7.94264 107.683 6.47497 111.183 4.14397C113.867 2.33097 116.783 1.12231 117.6 1.29497C118.533 1.55397 119.817 1.72664 120.517 1.72664ZM121.217 13.2953C120.983 13.3816 118.183 15.022 114.917 16.9213C107.8 21.1516 106.167 21.9286 106.167 20.8926C106.167 19.5976 120.75 11.137 121.217 12.173C121.333 12.6046 121.333 13.1226 121.217 13.2953ZM117.25 18.7343C109.433 23.828 105.817 25.4683 106.283 23.9143C106.867 22.3603 120.283 14.4176 121.217 15.1946C121.567 15.4536 119.817 17.094 117.25 18.7343ZM121.333 18.4753C121.333 19.425 112.933 24.7776 107.45 27.195C103.483 28.9216 107.333 25.5546 113.75 21.6696C121.8 16.7486 121.333 16.9213 121.333 18.4753ZM120.75 31.857C119.35 33.67 106.167 39.7996 106.167 38.6773C106.283 38.073 109.55 35.9146 113.517 33.929C120.4 30.4756 122.5 29.8713 120.75 31.857ZM121.333 33.67C121.333 34.1016 118.533 36.001 115.267 37.814C107.217 42.1306 106.167 42.5623 106.167 41.5263C106.167 41.0946 109.433 38.9363 113.517 36.8643C121.917 32.375 121.333 32.5476 121.333 33.67ZM122.5 43.0803C122.5 43.512 120.633 44.7206 118.417 45.7566C116.2 46.7926 114.333 47.8286 114.333 48.0876C114.333 48.3466 115.733 47.915 117.367 47.138C119 46.2746 120.867 45.7566 121.683 46.0156C122.383 46.1883 119.35 48.174 114.917 50.3323C110.367 52.577 106.517 53.9583 106.283 53.4403C106.167 53.0086 106.867 51.9726 108.033 51.282C110.017 50.246 110.017 50.1596 108.267 50.5913C103.833 51.7136 106.517 49.21 113.517 45.843C120.983 42.217 122.5 41.699 122.5 43.0803Z" fill="#395C86"/>
<path d="M112 5.61167C109.2 7.77001 107.1 9.49667 107.45 9.49667C107.8 9.49667 110.366 7.77001 113.166 5.61167C115.966 3.45334 118.066 1.72667 117.716 1.72667C117.366 1.72667 114.8 3.45334 112 5.61167Z" fill="#395C86"/>
<path d="M17.3831 2.76265C15.9831 4.74832 15.9831 4.74832 18.5498 3.10799C21.2331 1.29499 21.5831 0.863319 19.8331 0.863319C19.2498 0.863319 18.0831 1.72665 17.3831 2.76265Z" fill="#395C86"/>
<path d="M68.2497 1.89933C67.8997 2.50366 67.783 13.1227 67.8997 25.382L68.2497 47.656L76.7664 42.8213C81.3164 40.145 85.1664 38.5047 85.1664 39.109C85.1664 39.627 82.483 41.44 79.333 43.0803C76.0664 44.7207 72.7997 46.62 71.983 47.397C71.283 48.0877 73.1497 47.397 76.183 45.7567C79.333 44.1163 82.133 42.476 82.3664 42.1307C83.183 41.181 85.1664 41.2673 85.1664 42.3033C85.1664 43.253 71.8664 50.0733 70.1164 50.0733C69.4164 50.0733 68.833 50.764 68.833 51.541C68.833 52.4907 69.183 52.7497 69.7664 52.1453C70.233 51.6273 73.9664 49.5553 77.933 47.5697C83.6497 44.7207 85.283 44.2027 84.933 45.4113C84.8164 46.2747 81.083 48.5193 76.6497 50.4187C72.333 52.4043 68.833 54.3037 68.833 54.7353C68.833 55.167 69.7664 54.908 70.933 54.2173C75.483 51.3683 85.1664 47.5697 85.1664 48.6057C85.1664 49.8143 71.5164 56.721 69.883 56.2893C68.133 55.944 68.7164 63.0233 70.583 66.045C72.7997 69.412 79.4497 74.592 80.383 73.6423C81.5497 72.4337 94.383 65.6133 96.483 65.009C98.3497 64.491 98.233 64.75 96.2497 66.4767L93.9164 68.5487L96.3664 67.2537C100.683 65.0953 111.533 57.5843 108.85 58.6203C107.333 59.1383 104.883 60.606 103.25 61.8147C100.683 63.714 99.3997 63.973 94.9664 63.714C92.1664 63.5413 89.833 63.714 89.833 63.973C89.833 64.232 86.9164 65.9587 83.2997 67.6853C76.533 71.0523 73.383 71.3113 78.283 68.117L81.083 66.304L78.1664 67.6853C75.0164 69.2393 73.4997 69.412 73.4997 68.2897C73.4997 67.34 86.333 61.0377 87.1497 61.642C87.4997 61.901 87.1497 62.8507 86.2164 63.6277C84.8164 65.0953 84.8164 65.0953 86.7997 63.8003C88.433 62.678 88.6664 61.9873 87.6164 60.6923C86.9164 59.57 86.333 48.174 86.0997 30.1303L85.7497 1.295L77.233 1.036C71.0497 0.863335 68.5997 1.12233 68.2497 1.89933ZM75.0164 2.93533C74.6664 3.45333 75.0164 3.367 75.9497 2.76266C76.7664 2.24467 77.933 1.72666 78.5164 1.72666C78.983 1.72666 79.0997 2.24467 78.633 2.76266C77.933 3.53967 78.283 3.53967 79.683 2.76266C80.9664 1.98566 82.133 1.813 83.533 2.41734C85.1664 3.108 84.933 3.626 81.5497 6.56133C78.8664 8.89233 78.5164 9.324 80.733 7.94267L83.7664 5.957L84.4664 8.20167C85.1664 10.1873 84.233 11.396 78.0497 16.4897C71.7497 21.8423 68.833 23.4827 68.833 21.9287C68.833 21.6697 72.333 18.4753 76.533 14.763L84.233 8.20167L77.1164 13.727C69.2997 19.943 66.4997 20.5473 73.1497 14.5903L77.4664 10.7917L73.2664 13.6407L69.183 16.4897L69.2997 11.914C69.2997 9.41033 69.883 6.82034 70.4664 6.12966C71.1664 5.35267 71.0497 5.09367 70.3497 5.439C69.6497 5.78433 69.183 5.18 69.183 4.05766C69.183 2.41734 69.7664 2.072 72.4497 2.072C74.433 2.072 75.483 2.41734 75.0164 2.93533ZM85.1664 14.1587C85.1664 15.4537 69.883 26.0727 68.9497 25.4683C68.3664 25.0367 83.0664 13.1227 84.3497 13.0363C84.8164 12.95 85.1664 13.468 85.1664 14.1587ZM78.283 23.569C74.433 26.3317 71.1664 28.9217 71.1664 29.1807C71.1664 29.526 74.083 27.6267 77.583 25.0367C81.083 22.533 84.3497 20.72 84.8164 21.0653C85.633 21.6697 71.633 31.9433 69.9997 31.9433C69.6497 31.9433 69.2997 30.821 69.4164 29.4397C69.4164 27.454 71.0497 25.8137 76.9997 21.756C86.683 15.1947 87.8497 16.7487 78.283 23.569ZM85.1664 24.9503C85.1664 25.382 81.783 28.0583 77.583 30.9937C73.383 33.8427 70.3497 36.26 70.933 36.26C71.3997 36.26 74.433 34.2743 77.583 31.9433C80.733 29.526 83.7664 27.6267 84.233 27.6267C86.683 27.6267 84.4664 29.785 77.6997 33.8427C73.4997 36.3463 70.3497 38.591 70.6997 38.7637C70.933 38.9363 74.083 37.2097 77.583 34.965C83.9997 30.9073 87.033 30.3893 84.1164 33.8427C83.183 34.965 83.0664 35.3967 83.9997 34.965C84.933 34.5333 85.283 34.8787 84.933 35.9147C84.4664 37.6413 70.233 46.2747 69.183 45.4113C68.7164 45.1523 69.6497 43.8573 71.283 42.476C72.7997 41.181 73.2664 40.663 72.333 41.181C69.6497 42.994 69.0664 42.476 69.0664 38.1593C69.0664 34.2743 69.4164 33.8427 76.2997 29.1807C83.2997 24.346 85.1664 23.3963 85.1664 24.9503ZM85.1664 51.7137C85.1664 52.1453 83.9997 53.095 82.5997 53.872L79.9164 55.3397L82.5997 54.39C84.1164 53.7857 85.1664 53.7857 85.1664 54.3037C85.1664 54.9943 72.333 61.2967 70.933 61.2967C70.583 61.2967 70.3497 60.5197 70.4664 59.4837C70.583 58.3613 72.9164 56.5483 76.9997 54.39C83.7664 50.9367 85.1664 50.505 85.1664 51.7137ZM85.1664 56.98C85.1664 58.275 72.683 64.1457 70.933 63.714C70.1164 63.455 72.7997 61.642 76.9997 59.7427C85.5164 55.685 85.1664 55.7713 85.1664 56.98ZM85.7497 59.4837C86.0997 60.0017 83.2997 61.901 79.4497 63.8003C75.5997 65.786 72.2164 66.9947 71.7497 66.563C71.3997 66.045 74.1997 64.1457 77.8164 62.2463C85.7497 58.1887 84.8164 58.534 85.7497 59.4837ZM93.333 65.0953C93.333 65.786 80.2664 72.52 79.0997 72.52C76.7664 72.52 78.983 70.707 84.583 67.858C89.833 65.1817 93.333 64.0593 93.333 65.0953Z" fill="#395C86"/>
<path d="M76.883 7.51101L74.083 9.92834L77.3497 7.85634C80.2663 5.87068 81.083 5.18001 80.1497 5.18001C79.9163 5.18001 78.5163 6.21601 76.883 7.51101Z" fill="#395C86"/>
<path d="M71.6332 12.2593L69.4165 14.245L72.0998 12.6047C74.5498 11.0507 75.2498 10.36 74.3165 10.36C74.0832 10.36 72.9165 11.2233 71.6332 12.2593Z" fill="#395C86"/>
<path d="M76.883 38.591L74.083 41.0083L77.3497 38.9363C80.2663 36.9507 81.083 36.26 80.1497 36.26C79.9163 36.26 78.5163 37.296 76.883 38.591Z" fill="#395C86"/>
<path d="M75.483 56.8936C70.6997 59.1383 70.1163 60.0016 74.3163 58.3613C76.2997 57.5843 78.3997 56.6346 78.7497 56.1166C79.683 54.9943 79.4497 55.0806 75.483 56.8936Z" fill="#395C86"/>
<path d="M139.533 1.64033C139.067 2.072 139.183 3.02167 139.533 3.79867C140.117 5.00733 140.583 4.921 143.15 3.45333C146.883 1.295 148.983 1.20867 146.883 3.19433C145.367 4.662 145.367 4.662 147.7 3.19433C152.717 0.0863338 153.067 1.89933 148.05 5.35267C142.567 9.23767 144.317 8.37433 152.017 3.626L156.45 0.863333H148.283C143.85 0.863333 139.883 1.20867 139.533 1.64033ZM142.917 2.59C142.567 3.02167 141.633 3.45333 141.05 3.45333C140.35 3.45333 140.233 3.02167 140.583 2.59C140.933 2.072 141.867 1.72667 142.45 1.72667C143.15 1.72667 143.267 2.072 142.917 2.59Z" fill="#395C86"/>
<path d="M171.033 3.53967C170.683 5.00734 170.683 7.77001 171.033 9.58301L171.85 12.95H187.95C197.983 12.95 204.166 13.2953 204.166 13.8133C204.166 14.8493 200.9 20.0293 184.566 45.325C173.133 63.0233 172.2 64.75 171.733 70.5343L171.266 76.8367H182.35C191.683 76.8367 193.9 76.5777 196.233 75.11C204.166 70.189 214.9 64.6637 216.066 64.9227C216.766 65.0953 213.5 67.5127 208.716 70.2753C199.616 75.5417 198.45 76.5777 201.133 76.5777C202.066 76.5777 202.766 76.2323 202.65 75.887C202.533 75.4553 206.266 72.8653 210.933 69.93C218.75 65.268 221.666 63.973 221.666 65.1817C221.666 65.6997 214.2 70.7933 208.133 74.333C205.8 75.7143 204.4 76.8367 205.1 76.8367C205.8 76.8367 209.416 74.7647 213.033 72.261C220.966 66.822 223.883 65.268 224.816 65.9587C225.166 66.2177 222.133 68.8077 218.05 71.5703L210.583 76.7503L218.283 76.8367C225.983 76.8367 226.1 76.8367 226.566 74.333C227.033 71.8293 227.033 71.8293 224.35 73.2107C222.95 74.074 221.666 74.9373 221.666 75.2827C221.666 75.7143 220.733 75.9733 219.683 75.9733C218.166 75.9733 218.983 74.9373 222.6 72.52C228.083 68.635 227.85 69.0667 226.333 66.1313L225.283 63.973L209.766 64.0593H194.25L194.483 62.0737C194.6 60.9513 197.516 55.5123 201.016 50.0733C204.516 44.6343 209.3 36.8643 211.75 32.8067C214.2 28.749 218.516 22.015 221.316 17.7847C225.283 11.655 226.333 9.15134 226.333 5.52534V0.863342H199.033H171.85L171.033 3.53967ZM177.683 4.83468C175.233 6.38867 172.783 7.68368 172.083 7.68368C171.5 7.68368 172.783 6.56134 175 5.18001C177.216 3.71234 178.383 2.59001 177.683 2.59001C176.983 2.59001 175.816 3.19434 175 3.88501C174.183 4.57568 173.016 5.18001 172.433 5.18001C171.616 5.18001 171.733 4.74834 172.55 4.05768C173.25 3.36701 173.6 2.67635 173.25 2.41734C173.016 2.24467 174.766 1.98567 177.45 1.98567L182.116 1.89935L177.683 4.83468ZM180.25 6.56134L173.25 11.396L181.066 6.47501C191.333 0.0863419 194.016 0.690674 184.1 7.16567C176.05 12.3457 174.183 12.95 173.016 10.7053C172.55 9.66934 174.066 8.11534 178.033 5.52534C186.433 7.62939e-06 188.416 0.949677 180.25 6.56134ZM189.933 6.90668C180.366 13.5543 176.983 13.6407 186.083 6.90668C189.933 4.144 194.016 1.81301 195.183 1.72668C196.583 1.72668 194.716 3.45334 189.933 6.90668ZM206.733 3.36701C205.45 4.144 201.483 6.47501 197.866 8.46068C194.366 10.5327 190.75 12.0867 190.05 11.914C189.233 11.7413 191.8 9.66934 195.766 7.33834C202.416 3.53967 203.7 2.59001 202.533 2.59001C202.3 2.59001 198.566 4.74834 194.133 7.33834C189.7 9.92834 185.616 12.0867 184.916 12.0867C184.333 12.0003 187.016 9.75568 191.1 6.90668C197.866 2.24467 198.8 1.89935 203.816 1.98567C208.833 1.98567 208.95 2.07201 206.733 3.36701ZM208.366 6.12968C204.166 8.547 200.666 10.7917 200.666 10.9643C200.666 11.2233 201.366 11.0507 202.183 10.619C202.883 10.1873 206.733 7.94267 210.7 5.78434C214.55 3.53967 218.75 1.72668 220.033 1.72668C222.95 1.72668 225.633 3.02168 224.816 4.05768C223.3 5.87067 206.616 13.8133 206.033 13.0363C205.566 12.6047 209.416 10.0147 214.316 7.42467C219.333 4.74834 222.95 2.59001 222.366 2.59001C221.55 2.59001 206.383 10.2737 205.333 11.3097C204.983 11.5687 202.3 11.8277 199.266 11.914H193.783L202.183 6.90668C206.966 4.05768 211.75 1.81301 213.383 1.81301C215.6 1.72668 214.666 2.59001 208.366 6.12968ZM224.116 7.25201C222.483 8.63334 205.916 17.2667 204.75 17.2667C202.533 17.2667 205.683 15.1083 214.083 10.878C223.3 6.12968 226.683 4.92101 224.116 7.25201ZM225.166 9.41034C225.166 10.5327 201.833 22.792 201.016 22.1013C199.966 21.3243 200.783 20.8063 212.916 14.3313C223.533 8.63334 225.166 8.02901 225.166 9.41034ZM221.2 15.1083C220.15 16.317 219.683 17.2667 220.033 17.2667C220.5 17.2667 219.916 18.0437 218.633 19.0797C217.466 20.0293 216.416 21.3243 216.3 21.8423C216.3 22.4467 216.066 23.31 216.066 23.828C215.833 24.7777 193.316 37.1233 191.8 37.1233C191.333 37.1233 191.8 36.4327 192.85 35.5693C194.716 34.1017 194.833 33.7563 194.833 31.598C194.833 30.9073 198.916 28.3173 203.933 25.8137C214.55 20.461 220.033 17.2667 218.283 17.2667C217.7 17.2667 216.766 17.6983 216.416 18.13C215.133 19.5977 198.216 27.7993 197.516 27.2813C196.583 26.677 201.366 23.569 212.333 17.7847C222.133 12.5183 224 12.0003 221.2 15.1083ZM210.466 30.821C208.6 31.9433 203.233 34.706 198.683 36.8643C194.016 39.109 190.4 41.0083 190.633 41.2673C190.983 41.44 195.416 39.4543 200.666 36.778C205.916 34.1017 210.466 31.9433 210.7 31.9433C211.05 31.9433 210.7 32.634 210.116 33.5837C208.716 35.483 187.833 45.1523 186.783 44.3753C186.433 44.1163 187.016 43.512 188.066 43.0803C189.233 42.6487 189.816 41.699 189.466 41.0947C189 40.3177 192.733 37.9003 199.966 34.1017C206.15 30.9937 211.516 27.972 211.983 27.3677C212.566 26.677 212.916 26.7633 213.266 27.6267C213.616 28.231 212.333 29.6987 210.466 30.821ZM206.383 39.368C205.566 40.145 204.75 41.181 204.633 41.7853C203.933 45.4977 199.383 48.8647 189.7 52.836C184.1 55.167 179.2 56.98 178.966 56.8073C178.033 56.0303 181.066 54.3037 190.516 50.5913C196.116 48.3467 200.666 46.2747 200.666 46.0157C200.666 45.843 196.233 47.397 190.75 49.6417C178.85 54.39 178.616 52.836 190.516 47.7423C195.066 45.7567 199.966 43.512 201.25 42.6487C203.466 41.3537 203.466 41.3537 200.666 42.476C189.7 47.2243 184.1 49.3827 183.633 48.951C182.816 48.3467 189.233 44.807 198.8 40.663C206.966 37.1233 209.3 36.778 206.383 39.368ZM199.5 50.9367C199.5 51.3683 198.333 52.1453 197.05 52.7497C195.416 53.354 194.95 53.9583 195.766 54.3037C197.983 55.2533 195.766 56.6347 185.5 60.5197C172.783 65.3543 173.366 65.1817 174.65 63.455C175.233 62.678 179.9 60.347 185.033 58.1887C190.05 56.1167 193.783 54.39 193.2 54.39C192.616 54.39 188.766 55.7713 184.683 57.498C180.483 59.2247 176.866 60.4333 176.516 60.1743C175.933 59.6563 177.916 58.6203 189.583 53.6993C198.45 49.9007 199.5 49.6417 199.5 50.9367ZM194.016 59.2247C193.2 60.9513 172.666 68.5487 172.666 67.1673C172.666 66.3903 191.683 58.275 194.483 57.8433C194.6 57.8433 194.483 58.4477 194.016 59.2247ZM192.266 63.196C192.033 63.714 187.483 65.8723 182.233 67.9443C174.883 70.8797 172.666 71.484 172.666 70.448C172.666 69.5847 176.166 67.7717 181.766 65.6997C191.45 61.9873 192.966 61.642 192.266 63.196ZM194.833 65.0953C194.833 65.268 190.166 67.5127 184.333 70.0163C178.616 72.52 174.066 74.7647 174.3 74.9373C174.533 75.11 178.15 73.6423 182.35 71.743C199.616 63.973 206.383 62.678 190.75 70.2753C185.966 72.6063 182 74.592 182 74.851C182 75.2827 183.166 74.7647 193.083 69.93C203.933 64.5773 203.933 64.5773 204.633 65.4407C204.983 65.8723 200.9 68.376 195.65 70.966C186.666 75.369 185.5 75.8007 179.55 75.628C170.1 75.4553 170.916 73.3833 182.583 68.635C190.983 65.268 194.833 64.1457 194.833 65.0953ZM211.166 65.3543C211.05 66.6493 192.266 76.0597 190.4 75.8007C189.116 75.5417 192.033 73.6423 198.916 70.189C209.533 64.8363 211.166 64.232 211.166 65.3543ZM221.433 72.0883C218.4 74.2467 215.25 75.9733 214.433 75.9733C212.683 75.887 224 68.2033 225.75 68.2033C226.45 68.2033 224.466 70.0163 221.433 72.0883ZM225.166 75.11C225.166 75.5417 224.583 75.9733 223.883 75.9733C223.3 75.9733 223.066 75.5417 223.416 75.11C223.766 74.592 224.35 74.2467 224.7 74.2467C224.933 74.2467 225.166 74.592 225.166 75.11Z" fill="#395C86"/>
<path d="M204.983 27.6266C199.266 30.9936 194.95 33.67 195.416 33.67C196.35 33.67 215.833 22.533 215.833 21.9286C215.833 21.3243 215.483 21.497 204.983 27.6266Z" fill="#395C86"/>
<path d="M236.366 1.64032C236.016 1.98566 237.183 2.15832 238.933 1.98566C241.85 1.64032 241.85 1.72665 239.75 2.67632C238.466 3.28065 237.3 3.79865 237.066 3.97132C236.716 4.14399 241.15 11.137 242.2 12.0003C242.433 12.173 245.466 10.4463 248.966 8.28799C253.05 5.61166 255.616 4.57565 256.083 5.17999C256.55 5.78432 256.433 6.47498 255.966 6.82032C248.266 11.4823 243.95 13.6407 243.25 13.1227C242.2 12.3457 243.483 15.7127 246.05 20.0293L247.916 23.2237L254.1 19.684C260.283 16.058 261.566 16.058 262.966 19.5113C263.55 21.0653 262.966 21.756 259.583 23.31C257.366 24.346 255.5 25.382 255.5 25.641C255.5 25.8137 257.366 25.2093 259.7 24.1733C261.916 23.1373 264.133 22.533 264.6 22.8783C265.066 23.1373 264.6 23.7417 263.55 24.1733C262.5 24.605 260.4 25.8137 258.883 26.7633L256.083 28.6627L259.583 27.0223C265.416 24.2597 266 24.0007 266 24.9503C266 25.9863 254.216 32.116 253.4 31.5117C253.05 31.2527 253.516 30.562 254.333 29.785C255.616 28.6627 255.5 28.5763 253.866 29.008C251.65 29.6123 251.416 28.4037 253.516 26.8497C254.683 25.9863 254.566 25.9 252.933 26.3317C249.083 27.454 250.833 25.2957 256.083 22.533C259 20.979 261.333 19.5113 261.333 19.3387C261.333 19.0797 258.766 20.202 255.616 21.9287C252.583 23.6553 249.55 24.6913 249.083 24.346C247.916 23.6553 248.266 24.346 252.7 32.2023C255.266 36.6917 256.2 37.7277 256.783 36.519C257.483 35.1377 281.166 21.6697 288.166 18.648C293.883 16.1443 283.266 22.8783 271.6 29.0943C264.016 33.152 257.833 36.6053 257.833 36.8643C257.833 37.555 284.2 23.7417 285.366 22.3603C285.716 21.9287 286.533 21.5833 287.233 21.5833C287.933 21.5833 287.35 22.6193 285.716 23.828C281.516 27.195 260.05 39.109 258.3 39.109C257.25 39.109 257.133 39.5407 257.95 40.663C258.533 41.5263 259 49.9007 259 59.3973V76.664L261.916 77.0093C263.55 77.2683 265.183 77.0957 265.533 76.664C265.883 76.3187 268.8 74.9373 272.066 73.7287C276.15 72.1747 277.666 71.1387 277.2 70.2753C276.85 69.4983 276.5 68.7213 276.5 68.5487C276.5 68.376 273.933 69.153 270.666 70.3617C263.316 73.1243 263.083 73.9013 270.2 71.5703C273.233 70.6207 275.916 70.1027 276.266 70.3617C277.083 70.8797 277.083 70.8797 270.2 73.6423C263.2 76.5777 260.75 76.5777 260.4 73.9877C260.283 72.3473 261.333 71.5703 266 69.93C269.266 68.8077 271.6 67.7717 271.366 67.599C271.133 67.34 268.8 68.0307 266.116 68.9803C263.55 70.0163 261.216 70.7933 260.866 70.7933C259.933 70.7933 260.516 66.9947 261.683 65.786C262.383 65.1817 262.383 64.75 261.683 64.75C260.983 64.75 260.516 63.6277 260.4 62.2463C260.4 60.5197 261.1 59.4837 262.85 58.793L265.416 57.8433L262.85 58.3613C257.133 59.3973 260.516 56.721 268.333 54.131C276.15 51.4547 276.383 51.282 276.383 48.3467C276.383 46.7063 276.033 45.843 275.683 46.4473C275.333 47.0517 272.066 48.692 268.216 50.0733C260.75 52.9223 260.166 53.0087 260.166 51.8863C260.166 51.1093 273.35 44.8933 275.1 44.8933C276.383 44.8933 286.183 27.5403 285.25 26.936C284.9 26.677 284.666 26.936 284.666 27.454C284.666 28.0583 281.05 30.4757 276.5 32.893C272.066 35.3103 268.333 37.4687 268.333 37.6413C268.333 37.9003 271.25 36.519 274.983 34.6197C278.6 32.634 281.75 31.2527 281.983 31.4253C283.266 32.375 279.883 34.6197 270.9 39.0227C260.4 44.2027 256.666 44.8933 263.666 40.404L267.75 37.814L263.9 39.7133C261.8 40.7493 259.7 41.3537 259.35 41.0947C258.883 40.8357 258.883 40.4903 259.116 40.3177C264.716 37.3823 274.983 31.598 279.766 28.6627C283.033 26.5907 285.833 25.123 285.833 25.5547C285.95 26.8497 288.166 23.569 291.083 17.6983C294.466 11.0507 294.7 10.9643 280.583 18.8207C275.45 21.6697 271.133 24.0007 271.016 23.828C270.9 23.7417 271.016 22.8783 271.366 21.8423C271.833 20.72 275.916 18.3027 281.866 15.6263C287.233 13.1227 291.666 10.9643 291.666 10.619C291.666 10.36 290.5 10.7053 289.1 11.396C281.516 15.1083 274.4 18.13 273.35 18.13C272.65 18.13 271.366 19.7703 270.316 21.756C269.266 23.7417 268.1 25.123 267.633 24.864C267.283 24.5187 265.766 22.1877 264.366 19.5113L261.683 14.6767L255.033 18.2163C251.3 20.202 248.033 21.497 247.566 21.1517C246.4 20.2883 255.383 15.1083 260.983 13.3817C261.216 13.2953 259.933 10.619 258.416 7.33832C256.783 4.14399 255.5 1.29499 255.5 1.20866C255.5 0.51799 236.95 0.949654 236.366 1.64032ZM254.916 2.76266C255.266 3.02165 252.7 5.00732 249.2 7.25198C244.766 10.0147 242.55 10.9643 241.966 10.1873C241.383 9.58298 243.016 7.94265 246.283 5.87065C249.083 4.05766 251.066 2.58999 250.6 2.58999C250.133 2.58999 247.916 3.79865 245.583 5.26632C243.25 6.82032 241.033 7.68365 240.566 7.33832C240.1 7.07932 241.266 5.78432 243.016 4.66199C244.766 3.53965 245.816 2.58999 245.233 2.58999C244.65 2.58999 243.25 3.36699 242.083 4.31665C240.916 5.26632 239.516 5.78432 238.816 5.43899C236.25 4.23032 243.25 1.81299 248.733 2.07198C251.766 2.15832 254.566 2.50365 254.916 2.76266ZM257.833 8.54699C257.833 8.97865 255.15 10.9643 251.883 12.8637C248.5 14.8493 246.283 16.4033 246.866 16.4033C247.333 16.4033 248.85 15.7127 250.133 14.763C251.533 13.8997 253.983 12.5183 255.85 11.655C258.416 10.4463 259 10.36 259 11.396C259 12.6047 247.683 19.5113 246.75 18.907C246.516 18.7343 246.05 17.5257 245.583 16.317C244.883 14.3313 245.583 13.6407 250.483 10.9643C256.316 7.68365 257.833 7.25198 257.833 8.54699ZM289.8 16.317C288.633 17.2667 280.583 21.756 271.95 26.2453C261.333 31.9433 255.85 34.2743 255.033 33.67C254.45 33.2383 254.1 32.7203 254.45 32.5477C256.9 31.08 266 26.7633 266.816 26.7633C267.283 26.7633 273 23.9143 279.416 20.3747C290.383 14.504 294.933 12.691 289.8 16.317ZM278.716 38.1593C277.2 40.0587 276.966 40.5767 276.616 42.217C276.5 42.735 266.7 47.5697 261.1 49.8143C260.516 49.987 260.166 49.6417 260.166 48.8647C260.166 48.174 263.55 46.1883 267.75 44.4617C271.95 42.735 275.333 41.181 275.333 40.922C275.333 40.663 271.833 41.958 267.633 43.6847C263.316 45.4977 260.05 46.4473 260.283 45.9293C260.75 44.8933 279.066 35.3967 279.766 35.8283C280 36.001 279.533 37.037 278.716 38.1593ZM275.333 49.469C275.333 50.0733 271.95 51.8 267.75 53.354C262.733 55.167 260.166 55.685 260.166 54.9943C260.166 54.2173 272.066 48.951 275.1 48.433C275.216 48.3467 275.333 48.8647 275.333 49.469Z" fill="#395C86"/>
<path d="M279.883 3.10799C278.366 6.12966 278.833 6.30232 282.333 4.23032C284.083 3.28066 284.433 2.76266 283.266 3.10799C282.1 3.36699 281.166 3.28066 281.166 2.76266C281.166 2.33099 283.033 1.89932 285.25 1.98566L289.333 2.07199L286.183 4.05766C284.316 5.09366 281.75 6.30232 280.35 6.56132C278.833 6.82032 277.666 7.42466 277.666 7.85632C277.666 8.80599 280.35 7.85632 287.7 4.23032C291.433 2.33099 293.766 1.72666 295.75 2.07199C299.95 2.84899 298.433 4.31666 287.933 9.06499C275.916 14.5903 276.033 14.5903 276.85 11.5687C277.55 9.23766 277.433 9.23766 275.8 12.0003C274.866 13.5543 274.283 15.1083 274.633 15.281C274.983 15.54 280 13.5543 285.833 10.878C295.4 6.47499 299.016 5.69799 294.583 8.97866C293.65 9.66932 293.3 10.4463 293.883 10.7053C294.816 11.137 299.833 3.45332 299.833 1.64032C299.833 1.20866 295.633 0.863324 290.5 0.863324C281.4 0.863324 281.05 0.949657 279.883 3.10799Z" fill="#395C86"/>
<path d="M152.25 5.61166L147.583 8.63333L151.9 6.734C154.233 5.61166 156.45 4.23033 156.8 3.626C157.616 2.15833 157.5 2.24466 152.25 5.61166Z" fill="#395C86"/>
<path d="M287.116 6.38865C279.883 10.1873 276.616 12.173 280 10.7916C284.55 8.89231 296.333 2.58998 295.516 2.58998C294.933 2.58998 291.2 4.31665 287.116 6.38865Z" fill="#395C86"/>
<path d="M10.9663 7.07934L7.58301 9.92834L11.433 7.42468C14.933 5.00734 15.7497 4.31668 14.8163 4.31668C14.583 4.31668 12.9497 5.61168 10.9663 7.07934Z" fill="#395C86"/>
<path d="M142.333 5.61166C141.517 6.30233 140.467 6.64766 139.883 6.38866C138.717 5.87066 138.367 48.6057 139.533 49.469C140.233 49.987 150.15 45.2387 153.417 42.9077C155.167 41.6127 151.783 43.0803 146.183 46.0157C138.133 50.246 139.067 48.0013 147.117 43.5983C151.083 41.44 155.05 39.7997 155.983 40.0587C157.15 40.404 157.5 39.4543 157.5 36.26C157.5 33.8427 157.15 31.9433 156.683 31.9433C156.1 31.9433 153.883 33.152 151.667 34.6197C147.7 37.2097 147.7 37.2097 151.317 35.483C157.15 32.5477 157.383 33.411 151.667 37.296C147.117 40.3177 147 40.4903 150.733 38.591C155.517 36.001 156.333 35.8283 156.217 37.296C156.217 38.2457 144.083 44.7207 140.7 45.6703C140 45.843 141.05 44.6343 142.917 43.0803C144.9 41.44 145.25 40.922 143.733 41.7853C139.417 44.548 139.183 42.476 143.617 39.627C146.533 37.6413 146.65 37.4687 144.2 38.7637C140.35 40.8357 138.833 40.5767 141.283 38.2457C142.333 37.296 142.45 37.037 141.517 37.4687C140.583 37.814 140 37.6413 140 36.9507C140.117 35.742 150.967 28.9217 154.467 27.972C156.333 27.454 156.45 27.713 155.75 29.4397C155.05 31.08 155.167 31.339 156.45 30.4757C157.383 29.6987 157.5 28.8353 156.8 27.6267C155.75 25.9 155.4 26.0727 148.4 30.2167C144.433 32.5477 140.933 34.5333 140.7 34.5333C140.467 34.5333 140.233 32.7203 140.35 30.562C140.467 27.0223 140.817 26.418 145.717 23.4827C155.867 17.353 155.633 17.4393 154.933 19.5977C154.467 20.72 154.7 21.5833 155.283 21.5833C155.867 21.5833 156.333 20.3747 156.333 18.907V16.2307L148.867 20.6337C144.783 23.051 141.167 25.0367 140.817 25.0367C139.65 25.0367 140.35 16.835 141.633 15.6263C142.567 14.6767 142.567 14.504 141.517 15.022C138.95 16.058 139.883 14.504 143.267 11.7413L146.417 9.065L143.15 11.137L140 13.2953L140.233 10.7053C140.35 9.324 141.517 7.33833 142.8 6.216C143.967 5.18 144.783 4.31667 144.433 4.31667C144.083 4.31667 143.15 4.921 142.333 5.61166Z" fill="#395C86"/>
<path d="M145.717 12.691L142.917 15.1083L146.183 13.0363C149.1 11.0507 149.917 10.36 148.983 10.36C148.75 10.36 147.35 11.396 145.717 12.691Z" fill="#395C86"/>
<path d="M153.3 14.763C151.083 16.6623 151.083 16.6623 153.766 15.4537C155.166 14.763 156.333 13.986 156.333 13.6407C156.333 12.6047 155.633 12.8637 153.3 14.763Z" fill="#395C86"/>
<path d="M145.133 16.576L141.75 19.425L145.6 16.9213C147.583 15.4537 149.333 14.245 149.333 14.0723C149.333 13.3817 148.4 13.986 145.133 16.576Z" fill="#395C86"/>
<path d="M148.05 17.871C146.533 19.2523 146.65 19.3386 148.516 18.2163C150.383 17.094 150.966 16.4033 150.033 16.4033C149.8 16.4033 148.866 17.094 148.05 17.871Z" fill="#395C86"/>
<path d="M143.383 20.461C141.867 21.8423 141.983 21.9287 143.85 20.8063C144.9 20.202 145.833 19.5113 145.833 19.3387C145.833 18.648 144.9 19.0797 143.383 20.461Z" fill="#395C86"/>
<path d="M150.383 23.051C148.867 24.4323 148.983 24.5186 150.85 23.3963C151.9 22.792 152.833 22.1013 152.833 21.9286C152.833 21.238 151.9 21.6696 150.383 23.051Z" fill="#395C86"/>
<path d="M154.583 23.31C154.233 23.7417 154.467 24.1733 155.05 24.1733C155.75 24.1733 156.333 23.7417 156.333 23.31C156.333 22.792 156.1 22.4467 155.867 22.4467C155.517 22.4467 154.933 22.792 154.583 23.31Z" fill="#395C86"/>
<path d="M113.867 26.7633C108.383 29.8713 107.217 30.7347 110.25 29.526C112.933 28.4037 119.933 24.2597 119 24.2597C118.65 24.2597 116.433 25.382 113.867 26.7633Z" fill="#395C86"/>
<path d="M145.133 26.0727L142.917 28.0583L145.6 26.418C148.05 24.864 148.75 24.1733 147.817 24.1733C147.583 24.1733 146.417 25.0367 145.133 26.0727Z" fill="#395C86"/>
<path d="M150.383 25.641C148.867 27.0223 148.983 27.1087 150.85 25.9863C151.9 25.382 152.833 24.6913 152.833 24.5187C152.833 23.828 151.9 24.2597 150.383 25.641Z" fill="#395C86"/>
<path d="M144.55 29.0943L141.75 31.5117L145.017 29.4397C147.933 27.454 148.75 26.7633 147.817 26.7633C147.583 26.7633 146.183 27.7993 144.55 29.0943Z" fill="#395C86"/>
<path d="M151.55 31.6843C150.033 33.0657 150.15 33.152 152.016 32.0297C153.066 31.4253 154 30.7347 154 30.562C154 29.8713 153.066 30.303 151.55 31.6843Z" fill="#395C86"/>
<path d="M145.717 35.1377L142.917 37.555L146.183 35.483C149.1 33.4973 149.917 32.8067 148.983 32.8067C148.75 32.8067 147.35 33.8427 145.717 35.1377Z" fill="#395C86"/>
<path d="M121.45 38.5047C121.45 39.4544 121.8 39.7134 122.15 39.0227C122.5 38.4184 122.383 37.6414 122.033 37.3824C121.683 37.037 121.333 37.555 121.45 38.5047Z" fill="#395C86"/>
<path d="M155.633 44.1163C155.283 44.6343 155.516 45.4976 156.216 46.0156C157.15 46.7063 157.5 46.4473 157.5 45.066C157.5 42.994 156.916 42.6486 155.633 44.1163Z" fill="#395C86"/>
<path d="M145.017 49.0373C142.333 50.3323 140.117 51.7137 140 52.059C140 52.4043 142.333 51.541 145.25 50.0733C148.167 48.6057 150.5 47.2243 150.5 47.0517C150.5 46.4473 150.267 46.5337 145.017 49.0373Z" fill="#395C86"/>
<path d="M147.933 50.9367C144.783 52.4043 142.333 53.6993 142.333 53.9583C142.333 54.2173 145.016 53.1813 148.166 51.7137C151.433 50.246 154 48.8647 154 48.692C154 48.174 153.766 48.2603 147.933 50.9367Z" fill="#395C86"/>
<path d="M150.5 52.836C142.333 56.8937 140.933 58.4477 148.75 54.7353C152.6 52.9223 155.983 51.282 156.217 51.1957C156.45 51.023 156.45 50.764 156.217 50.5913C155.983 50.3323 153.417 51.3683 150.5 52.836Z" fill="#395C86"/>
<path d="M44.9163 53.1813C38.9663 56.1167 36.8663 57.6707 41.533 55.685C45.6163 53.9584 51.0997 51.023 50.1663 50.9367C49.8163 50.9367 47.483 51.9727 44.9163 53.1813Z" fill="#395C86"/>
<path d="M270.666 55.2533C267.75 56.6347 265.883 57.8433 266.35 57.8433C267.866 57.8433 276.5 54.0447 276.5 53.2677C276.5 52.4907 276.733 52.4043 270.666 55.2533Z" fill="#395C86"/>
<path d="M148.983 56.6347C145.366 58.275 142.333 59.9153 142.333 60.1743C142.333 60.4333 144.083 59.7427 146.183 58.7067C148.166 57.6707 151.316 56.3757 153.183 55.8577C154.933 55.3397 156.333 54.5627 156.333 54.2173C156.333 53.2677 156.333 53.2677 148.983 56.6347Z" fill="#395C86"/>
<path d="M111.067 60.5197C105.233 63.8003 100.333 66.7357 100.333 66.9947C100.333 67.1673 104.883 64.8363 110.483 61.7283C120.517 56.1167 126.233 54.0447 119.467 58.534C116.55 60.4333 96.1334 72.3473 90.3001 75.5417C89.4834 75.9733 88.4334 76.0597 87.9667 75.7143C87.5001 75.369 88.3167 74.4193 89.8334 73.6423C91.4667 72.779 94.2667 71.0523 96.2501 69.671C98.1167 68.376 96.4834 69.0667 92.4001 71.3113C88.4334 73.556 84.8167 75.11 84.3501 74.7647C83.8834 74.5057 84.5834 73.6423 85.8667 73.038C87.0334 72.3473 89.3667 70.966 91.0001 69.93C92.6334 68.894 91.3501 69.3257 88.3167 70.8797C81.2001 74.5057 81.0834 74.6783 84.9334 75.8007C91.0001 77.5273 95.3167 77.8727 96.9501 76.664C98.4667 75.5417 116.667 64.491 119.933 62.7643C120.75 62.2463 121.333 62.2463 121.333 62.8507C121.333 63.8003 103.017 75.4553 100.333 76.2323C99.0501 76.5777 99.2834 76.7503 100.917 76.7503C102.2 76.7503 104.417 75.887 105.933 74.6783C110.367 71.225 120.167 65.3543 120.167 66.2177C120.167 67.858 116.083 71.1387 111.067 73.4697C105.35 76.146 105.233 76.8367 110.717 74.7647C115.733 72.8653 120.983 67.9443 121.8 64.3183C122.267 62.5917 122.5 61.0377 122.267 60.865C122.033 60.6923 116.2 64.0593 109.083 68.2897C102.083 72.4337 95.3167 75.887 94.1501 75.9733C90.8834 75.9733 92.2834 75.0237 107.683 66.3903C125.417 56.462 124.133 57.4117 122.85 55.8577C122.033 54.7353 119.933 55.5987 111.067 60.5197Z" fill="#395C86"/>
<path d="M139.65 54.9943C138.483 55.7713 138.6 76.8367 139.767 76.8367C140.233 76.8367 140.583 71.743 140.583 65.6133C140.583 59.3973 140.583 54.39 140.467 54.39C140.467 54.39 140 54.649 139.65 54.9943Z" fill="#395C86"/>
<path d="M148.167 60.088C143.967 62.16 141.05 63.8867 141.517 63.8867C142.1 63.8867 150.967 59.9153 156.217 57.239C156.45 57.0663 156.45 56.8073 156.217 56.6347C155.983 56.462 152.367 58.016 148.167 60.088Z" fill="#395C86"/>
<path d="M270.667 58.7067C268.45 59.6563 267.167 60.347 267.75 60.347C268.45 60.347 270.783 59.6563 273 58.7067C275.217 57.757 276.617 57.0663 275.917 57.0663C275.333 57.0663 272.883 57.757 270.667 58.7067Z" fill="#395C86"/>
<path d="M18.3164 60.2607C18.6664 61.4693 17.8497 62.16 15.2831 63.0233C13.2997 63.6277 11.3164 64.491 10.9664 64.9227C10.6164 65.3543 12.3664 64.9227 14.9331 63.973C20.5331 61.8147 22.3997 62.937 17.8497 65.6133C15.9831 66.6493 15.3997 67.1673 16.3331 66.822C17.2664 66.4767 19.0164 65.6133 20.0664 64.9227C22.7497 63.2823 25.1997 64.4047 23.0997 66.304C21.6997 67.6853 21.8164 67.6853 23.9164 66.4767C25.1997 65.786 26.4831 65.1817 26.7164 65.009C26.9497 64.9227 25.7831 64.3183 24.0331 63.8003C22.2831 63.196 20.6497 61.8147 20.2997 60.6923C19.8331 59.57 19.1331 58.7067 18.6664 58.7067C18.0831 58.7067 17.9664 59.3973 18.3164 60.2607Z" fill="#395C86"/>
<path d="M155.75 59.57C155.4 60.0017 151.9 61.642 148.05 63.1097C144.317 64.6637 141.283 66.045 141.517 66.2177C141.75 66.304 144.783 65.3543 148.283 63.8867C155.75 60.865 156.333 60.7787 156.333 62.937C156.333 63.973 153.883 65.6133 149.333 67.6853C145.483 69.4983 142.333 71.1387 142.333 71.3977C142.333 71.6567 143.733 71.1387 145.483 70.3617C154 66.2177 156.333 65.4407 156.333 66.7357C156.333 67.4263 152.95 69.412 148.75 71.225C144.55 73.038 141.4 74.6783 141.633 74.9373C141.983 75.11 143.617 74.5057 145.483 73.556C150.617 70.8797 156.333 68.9803 156.333 69.8437C156.333 70.2753 153.067 72.1747 149.1 73.9877L141.75 77.2683L146.3 77.5273C149.8 77.7863 151.433 77.3547 153.3 75.887L155.75 73.9877L152.483 75.4553C150.617 76.2323 148.283 76.8367 147.233 76.664C145.833 76.405 146.767 75.7143 150.15 74.4193C156.333 72.002 156.683 72.002 156.1 74.6783C155.75 75.887 155.983 76.8367 156.567 76.8367C157.15 76.8367 157.5 72.779 157.383 67.7717C157.267 62.7643 157.033 58.7067 156.8 58.7067C156.683 58.7067 156.217 59.052 155.75 59.57Z" fill="#395C86"/>
<path d="M12.0166 61.383C7.93331 63.2823 6.64997 64.5773 10.2666 63.1097C12.8333 61.9873 17.0333 59.6563 16.3333 59.57C15.9833 59.57 14 60.4333 12.0166 61.383Z" fill="#395C86"/>
<path d="M270.433 61.383C267.983 62.3326 266 63.2823 266 63.455C266 63.8866 275.217 60.6923 276.383 59.9153C277.783 58.9656 274.283 59.829 270.433 61.383Z" fill="#395C86"/>
<path d="M271.6 63.973C269.15 64.9227 267.167 65.8723 267.167 66.045C267.167 66.304 269.15 65.786 271.6 65.009C276.85 63.196 276.967 63.1097 276.383 62.678C276.15 62.5053 273.933 63.1097 271.6 63.973Z" fill="#395C86"/>
<path d="M150.966 64.4047C148.866 65.6134 148.866 65.6997 151.433 64.75C152.833 64.232 154 63.6277 154 63.455C154 62.7644 153.416 62.937 150.966 64.4047Z" fill="#395C86"/>
<path d="M2.33301 64.6637C2.33301 65.9587 8.63301 72.6927 10.733 73.4697C12.2497 74.074 12.833 74.074 12.3663 73.4697C11.8997 73.038 13.6497 71.5703 16.333 70.2753C18.8997 68.9803 20.9997 67.7717 20.9997 67.599C20.9997 67.1673 19.2497 67.858 14.933 70.1027C11.3163 72.002 8.86634 72.0883 9.68301 70.448C10.1497 69.5847 9.79967 69.3257 8.86634 69.5847C6.18301 70.3617 5.48301 68.2033 7.69967 66.822C9.79967 65.6133 9.79967 65.6133 7.34967 66.4767C4.54967 67.4263 3.73301 66.6493 5.83301 65.0953C6.53301 64.5773 6.18301 64.232 4.66634 64.232C3.38301 64.232 2.33301 64.4047 2.33301 64.6637Z" fill="#395C86"/>
<path d="M145.133 66.9947C143.033 68.2034 143.033 68.2897 145.6 67.34C147 66.822 148.167 66.2177 148.167 66.045C148.167 65.3544 147.583 65.527 145.133 66.9947Z" fill="#395C86"/>
<path d="M274.167 66.4767C272.65 67.1673 272.767 67.34 274.517 67.34C275.567 67.34 276.5 66.9083 276.5 66.4767C276.5 65.4407 276.383 65.4407 274.167 66.4767Z" fill="#395C86"/>
<path d="M275.333 74.2467C273.817 75.0237 273.817 75.11 275.333 75.1963C276.267 75.2827 275.217 75.628 273 75.9733L268.917 76.5777L272.767 76.7503C275.217 76.8367 276.85 76.405 277.317 75.5417C278.133 73.7287 277.433 73.297 275.333 74.2467Z" fill="#395C86"/>
<path d="M250.25 125.701C243.833 126.392 213.5 129.5 182.816 132.522C152.25 135.543 126.116 138.479 124.95 138.997C119.816 140.982 117.716 144.263 117.95 149.788L118.3 154.968L114.8 154.709C112.933 154.537 93.683 152.465 71.983 150.134C50.3997 147.803 30.7997 145.903 28.583 145.903C26.133 145.903 23.4497 146.68 21.583 147.889C18.5497 149.788 18.1997 150.824 10.4997 190.797C3.26636 227.92 2.68303 231.978 4.08303 234.568C5.01636 236.122 6.88303 237.762 8.3997 238.28C10.9664 239.057 114.333 250.367 119 250.367C120.166 250.367 122.733 249.417 124.6 248.208C127.75 246.223 128.333 245.187 129.616 238.194C130.316 233.963 131.366 230.769 131.833 231.114C132.3 231.46 133.35 235.863 134.166 240.87C134.983 245.877 136.383 251.23 137.316 252.784C139.416 256.151 144.083 258.137 149.916 258.137C158.083 258.137 286.533 245.1 290.15 243.892C295.516 242.165 298.083 238.712 297.85 233.963C297.266 224.898 279.766 131.572 278.133 129.327C276.033 126.392 270.9 124.32 265.766 124.406C263.666 124.493 256.666 125.097 250.25 125.701ZM268.8 134.853C270.9 142.018 286.766 235.345 286.066 235.863C285.016 236.64 157.383 249.503 150.85 249.503C148.75 249.503 147 249.244 147 248.813C147 248.467 143.033 226.28 138.25 199.43C133.35 172.58 129.616 149.702 129.733 148.493L130.083 146.335L196 139.774C232.283 136.148 263.316 133.126 265.066 133.04C267.516 132.953 268.45 133.385 268.8 134.853ZM119.466 162.307C119.7 162.566 121.683 171.976 123.666 183.286L127.4 203.833L123.666 222.999C121.683 233.532 119.583 242.51 119 242.942C117.833 243.805 15.283 233.359 12.7164 232.15C11.783 231.719 13.533 220.668 18.783 193.732C22.7497 172.839 26.483 155.055 26.9497 154.019C27.7664 152.206 27.9997 152.292 73.2664 157.04C98.3497 159.717 119.116 162.048 119.466 162.307Z" fill="#395C86"/>
<path d="M190.866 156.263C171.616 161.961 163.8 181.3 180.6 181.3C185.966 181.3 187.716 180.091 191.683 173.53C194.716 168.35 197.983 166.623 204.633 166.623C206.85 166.623 209.883 167.4 211.633 168.436C214.083 169.818 214.666 170.94 214.666 173.962C214.666 177.329 213.966 178.278 207.666 183.372C199.266 190.279 197.166 193.128 197.166 197.703C197.166 201.157 200.083 204.524 203.35 204.696C209.766 205.128 215.833 202.193 215.833 198.567C215.833 197.617 219.566 193.905 224.116 190.192C237.533 179.314 239.633 173.616 233.683 164.81C231.233 161.357 229.016 159.544 224.7 157.558C219.683 155.314 217.933 154.968 207.783 154.796C198.8 154.537 195.416 154.882 190.866 156.263Z" fill="#395C86"/>
<path d="M205.917 210.567C201.6 211.948 198.917 214.97 198.917 218.596C198.917 221.445 199.617 222.481 202.767 224.553C208.483 228.352 216.65 227.488 220.033 222.654C222.717 218.769 222.017 215.92 217.7 212.725C213.733 209.79 210.583 209.186 205.917 210.567Z" fill="#395C86"/>
<path d="M64.983 170.508C57.7497 172.408 51.333 177.76 51.333 181.991C51.333 184.322 55.0663 186.48 59.1497 186.48C61.9497 186.48 63.583 185.617 66.9663 182.595C70.583 179.401 71.983 178.71 75.133 178.71C80.1497 178.71 85.1663 181.645 85.1663 184.494C85.1663 186.998 79.9163 190.969 72.4497 194.25C64.633 197.617 61.7163 203.574 66.2663 206.596C69.883 209.013 74.1997 208.409 77.583 205.042C79.333 203.401 84.1163 200.725 88.1997 198.998C97.6497 195.113 101.5 191.142 101.5 185.358C101.5 180.35 99.283 176.897 94.1497 174.048C85.983 169.472 74.1997 168.005 64.983 170.508Z" fill="#395C86"/>
<path d="M62.0667 214.366C58.6834 217.042 58.8 220.582 62.4167 223.172C65.9167 225.762 69.8834 225.934 73.9667 223.517C76.0667 222.222 77 220.927 77 218.941C77 213.157 67.3167 210.222 62.0667 214.366Z" fill="#395C86"/>
</svg>
