<svg width="20" height="20" viewBox="0 0 34 36" fill="none" xmlns="http://www.w3.org/2000/svg">
<path fill-rule="evenodd" clip-rule="evenodd" d="M20.8826 18.5032L23.8307 21.4505C24.5285 22.1481 24.5285 23.2792 23.8307 23.9768C23.1329 24.6744 22.0015 24.6744 21.3037 23.9768L18.3556 21.0295C18.123 20.797 18.123 20.4199 18.3556 20.1874L20.0402 18.5032C20.2728 18.2707 20.65 18.2707 20.8826 18.5032ZM12.58 3.5C17.5143 3.5 21.5143 7.49884 21.5143 12.4317C21.5143 17.3645 17.5143 21.3633 12.58 21.3633C7.64577 21.3633 3.64575 17.3645 3.64575 12.4317C3.64575 7.49884 7.64577 3.5 12.58 3.5ZM12.58 5.88178C8.96157 5.88178 6.02823 8.81426 6.02823 12.4317C6.02823 16.0491 8.96157 18.9816 12.58 18.9816C16.1985 18.9816 19.1318 16.0491 19.1318 12.4317C19.1318 8.81426 16.1985 5.88178 12.58 5.88178ZM14.7478 6.88422C16.45 7.54941 17.762 8.96891 18.2869 10.7224C18.4755 11.3525 18.1174 12.0162 17.4871 12.2048C16.8855 12.3847 16.2533 12.0668 16.033 11.4895L16.0044 11.4053C15.6901 10.3552 14.9009 9.50132 13.8804 9.10255C13.2677 8.8631 12.9651 8.1724 13.2046 7.55982C13.4441 6.94725 14.135 6.64477 14.7478 6.88422Z" fill="#1E1F2E"/>
</svg>
